<svg width="268" height="51" viewBox="0 0 268 51" fill="none" xmlns="http://www.w3.org/2000/svg">
<path d="M43.9998 1.10126C23.6742 2.42727 7.32421 9.47016 1.72522 19.3264C1.38032 19.9358 0.852767 21.1545 0.569093 22.0145C0.102766 23.3585 0.0211327 23.9319 0.00072451 25.9213C-0.0196837 28.6635 0.38644 30.1499 1.80583 32.7307C6.81604 41.8514 22.0304 48.8231 40.9559 50.6684C45.3988 51.0983 54.7498 51.1164 59.009 50.6864C72.1335 49.3604 82.8437 45.9737 90.4917 40.7228C94.9948 37.6228 98.0581 33.9666 99.3968 30.0427C100.148 27.8206 100.208 24.4871 99.5183 22.3372C98.4428 19.0217 96.1713 15.8685 92.9254 13.1985C85.3182 6.92632 73.5325 2.80497 59.11 1.37169C55.7855 1.03005 47.3467 0.886718 43.9998 1.10126ZM59.1121 6.74603C61.8508 7.03269 66.0702 7.69614 68.3417 8.19734C70.9182 8.75262 74.9345 9.95333 74.8733 10.1327C74.7519 10.4735 70.8978 13.0534 67.5304 15.0609C53.0672 23.6623 41.6875 25.8672 39.5161 20.5091C39.1304 19.5238 39.1712 17.4983 39.6171 15.9578C40.063 14.4163 42.0314 9.66758 42.9845 7.78629C43.5528 6.71088 43.7549 6.49634 44.2426 6.42422C45.562 6.20878 56.4549 6.45938 59.1121 6.74603ZM33.0457 8.84277C31.0987 11.2081 28.7457 14.8103 26.0681 19.559C21.261 28.0884 19.1916 32.4071 17.0008 38.5179C16.8793 38.8587 14.8099 37.5327 12.761 35.8299C6.49257 30.598 5.68135 24.2717 10.5293 18.663C13.5722 15.169 19.5967 11.7102 26.1487 9.70273C28.1569 9.07534 33.2283 7.80341 33.8161 7.74933C33.9181 7.7322 33.5732 8.2334 33.0457 8.84277ZM87.2468 16.4049C89.2754 18.0897 90.9387 20.2396 91.8111 22.2822C92.4193 23.6623 92.4601 23.931 92.4601 26.0097C92.4601 28.0703 92.4193 28.357 91.8315 29.7191C89.9448 34.109 85.5835 37.7112 78.4835 40.7219C75.4203 42.0119 71.5662 43.2126 68.0978 43.9292L67.4488 44.0726L68.7468 42.4058C73.1896 36.7791 76.9417 29.8083 81.9723 17.8553C82.7835 15.8839 83.5142 14.1639 83.554 14.0386C83.6968 13.7168 85.0968 14.6309 87.2468 16.4049ZM56.9621 30.2392C58.3008 30.6511 59.559 31.7806 60.0049 32.9633C60.5927 34.4867 60.4712 36.6547 59.6396 39.4681C58.9294 41.9055 57.6519 45.2922 57.3274 45.5789C56.9825 45.8836 51.8702 46.1161 47.5498 46.0269C42.56 45.9016 38.9692 45.5789 34.7702 44.8262C30.3079 44.0374 24.4446 42.4788 24.364 42.0489C24.3028 41.7983 28.2793 39.3788 31.9304 37.4434C39.1722 33.5907 46.3324 30.8485 50.8967 30.1499C51.5661 30.0427 52.3376 29.9174 52.6212 29.8813C53.5539 29.7371 55.9478 29.9345 56.9621 30.2392Z" fill="white"/>
<path d="M122.664 39V12.756H127.416V39H122.664ZM140.952 39V12.756H145.704V39H140.952ZM126.336 27.588V23.484H142.032V27.588H126.336ZM150.459 45.012V41.304H152.619C153.171 41.304 153.639 41.232 154.023 41.088C154.407 40.944 154.731 40.716 154.995 40.404C155.259 40.092 155.487 39.696 155.679 39.216L156.687 36.588V38.496L148.875 19.848H153.843L157.263 29.784L158.451 33.384H158.631L159.747 29.784L162.951 19.848H167.775L160.071 40.26C159.615 41.484 159.063 42.444 158.415 43.14C157.791 43.836 157.059 44.316 156.219 44.58C155.403 44.868 154.467 45.012 153.411 45.012H150.459ZM177.48 39.324C176.04 39.324 174.804 39.036 173.772 38.46C172.74 37.884 171.948 37.032 171.396 35.904C170.868 34.752 170.604 33.36 170.604 31.728V19.848H175.104V30.54C175.104 31.62 175.248 32.544 175.536 33.312C175.824 34.056 176.268 34.632 176.868 35.04C177.468 35.448 178.248 35.652 179.208 35.652C180.168 35.652 180.996 35.412 181.692 34.932C182.412 34.452 182.964 33.816 183.348 33.024C183.732 32.208 183.924 31.296 183.924 30.288V19.848H188.424V39H184.104L183.924 35.292H183.708C183.228 36.588 182.424 37.584 181.296 38.28C180.192 38.976 178.92 39.324 177.48 39.324ZM193.252 39V19.848H197.572L197.752 23.484H197.968C198.52 22.14 199.36 21.144 200.488 20.496C201.616 19.824 202.876 19.488 204.268 19.488C205.228 19.488 206.116 19.644 206.932 19.956C207.772 20.244 208.492 20.712 209.092 21.36C209.716 21.984 210.196 22.812 210.532 23.844C210.892 24.852 211.072 26.076 211.072 27.516V39H206.572V28.488C206.572 27.288 206.428 26.304 206.14 25.536C205.852 24.744 205.408 24.156 204.808 23.772C204.232 23.388 203.476 23.196 202.54 23.196C201.532 23.196 200.668 23.436 199.948 23.916C199.252 24.396 198.712 25.032 198.328 25.824C197.944 26.616 197.752 27.492 197.752 28.452V39H193.252ZM222.663 39.324C221.487 39.324 220.419 39.108 219.459 38.676C218.499 38.22 217.671 37.572 216.975 36.732C216.279 35.868 215.739 34.824 215.355 33.6C214.995 32.352 214.815 30.96 214.815 29.424C214.815 27.336 215.139 25.548 215.787 24.06C216.459 22.572 217.383 21.444 218.559 20.676C219.735 19.884 221.103 19.488 222.663 19.488C223.671 19.488 224.583 19.644 225.399 19.956C226.239 20.268 226.947 20.712 227.523 21.288C228.123 21.864 228.567 22.536 228.855 23.304H229.035V12.756H233.535V39H229.287L229.107 35.508H228.855C228.447 36.66 227.691 37.584 226.587 38.28C225.483 38.976 224.175 39.324 222.663 39.324ZM224.247 35.652C225.303 35.652 226.179 35.424 226.875 34.968C227.595 34.488 228.135 33.852 228.495 33.06C228.855 32.268 229.035 31.392 229.035 30.432V28.38C229.035 27.396 228.843 26.508 228.459 25.716C228.099 24.924 227.559 24.3 226.839 23.844C226.143 23.388 225.315 23.16 224.355 23.16C223.275 23.16 222.363 23.412 221.619 23.916C220.899 24.396 220.347 25.104 219.963 26.04C219.579 26.976 219.387 28.104 219.387 29.424C219.387 30.696 219.567 31.8 219.927 32.736C220.311 33.672 220.863 34.392 221.583 34.896C222.303 35.4 223.191 35.652 224.247 35.652ZM245.233 39.324C244.057 39.324 242.989 39.108 242.029 38.676C241.069 38.22 240.241 37.572 239.545 36.732C238.849 35.868 238.309 34.824 237.925 33.6C237.565 32.352 237.385 30.96 237.385 29.424C237.385 27.336 237.709 25.548 238.357 24.06C239.029 22.572 239.953 21.444 241.129 20.676C242.305 19.884 243.673 19.488 245.233 19.488C246.241 19.488 247.153 19.644 247.969 19.956C248.809 20.268 249.517 20.712 250.093 21.288C250.693 21.864 251.137 22.536 251.425 23.304H251.677L251.857 19.848H256.105V39H251.857L251.677 35.508H251.425C251.017 36.66 250.261 37.584 249.157 38.28C248.053 38.976 246.745 39.324 245.233 39.324ZM246.817 35.652C247.873 35.652 248.749 35.424 249.445 34.968C250.165 34.488 250.705 33.852 251.065 33.06C251.425 32.268 251.605 31.392 251.605 30.432V28.38C251.605 27.396 251.413 26.508 251.029 25.716C250.669 24.924 250.129 24.3 249.409 23.844C248.713 23.388 247.885 23.16 246.925 23.16C245.845 23.16 244.933 23.412 244.189 23.916C243.469 24.396 242.917 25.104 242.533 26.04C242.149 26.976 241.957 28.104 241.957 29.424C241.957 30.696 242.137 31.8 242.497 32.736C242.881 33.672 243.433 34.392 244.153 34.896C244.873 35.4 245.761 35.652 246.817 35.652ZM260.928 39V19.848H265.428V39H260.928ZM263.196 17.256C262.476 17.256 261.876 17.064 261.396 16.68C260.94 16.272 260.712 15.732 260.712 15.06C260.712 14.364 260.94 13.824 261.396 13.44C261.876 13.056 262.476 12.864 263.196 12.864C263.916 12.864 264.504 13.056 264.96 13.44C265.44 13.824 265.68 14.364 265.68 15.06C265.68 15.732 265.44 16.272 264.96 16.68C264.504 17.064 263.916 17.256 263.196 17.256Z" fill="white"/>
</svg>
