<?xml version="1.0" encoding="UTF-8" standalone="no"?>
<svg xmlns="http://www.w3.org/2000/svg" width="80" height="30" viewBox="0 0 80 30">
    <circle cx="15.0" cy="15.0" r="15.0" fill="#FFFFFF"/>
    <g transform="translate(3.0, 9.0) scale(0.6)">
        <path xmlns="http://www.w3.org/2000/svg" d="M17.5999 0.0405035C9.46969 0.570907 2.92968 3.38807 0.690087 7.33057C0.552128 7.57432 0.341107 8.06182 0.227637 8.4058C0.0411062 8.94342 0.00845308 9.17274 0.000289804 9.96853C-0.00787348 11.0654 0.154576 11.66 0.722332 12.6923C2.72642 16.3406 8.81214 19.1292 16.3824 19.8673C18.1595 20.0393 21.8999 20.0465 23.6036 19.8746C28.8534 19.3442 33.1375 17.9895 36.1967 15.8891C37.9979 14.6491 39.2232 13.1866 39.7587 11.6171C40.0591 10.7283 40.0832 9.39485 39.8073 8.53489C39.3771 7.2087 38.4685 5.94741 37.1702 4.8794C34.1273 2.37053 29.413 0.721987 23.644 0.148675C22.3142 0.0120182 18.9387 -0.045313 17.5999 0.0405035ZM23.6448 2.29841C24.7403 2.41308 26.4281 2.67846 27.3367 2.87894C28.3673 3.10105 29.9738 3.58133 29.9493 3.65309C29.9008 3.78938 28.3591 4.82134 27.0122 5.62434C21.2269 9.06493 16.675 9.94689 15.8064 7.80365C15.6522 7.40954 15.6685 6.59933 15.8469 5.98311C16.0252 5.36653 16.8126 3.46703 17.1938 2.71451C17.4211 2.28435 17.502 2.19853 17.6971 2.16969C18.2248 2.08351 22.582 2.18375 23.6448 2.29841ZM13.2183 3.13711C12.4395 4.08325 11.4983 5.5241 10.4272 7.4236C8.50439 10.8353 7.67663 12.5629 6.8003 15.0072C6.75173 15.1435 5.92397 14.6131 5.10438 13.9319C2.59703 11.8392 2.27254 9.30868 4.21173 7.06519C5.42887 5.66761 7.83867 4.28409 10.4595 3.48109C11.2628 3.23013 13.2913 2.72137 13.5264 2.69973C13.5673 2.69288 13.4293 2.89336 13.2183 3.13711ZM34.8987 6.16196C35.7102 6.83587 36.3755 7.69583 36.7244 8.51289C36.9677 9.06493 36.984 9.17238 36.984 10.0039C36.984 10.8281 36.9677 10.9428 36.7326 11.4876C35.9779 13.2436 34.2334 14.6845 31.3934 15.8888C30.1681 16.4048 28.6265 16.885 27.2391 17.1717L26.9795 17.229L27.4987 16.5623C29.2759 14.3116 30.7767 11.5233 32.7889 6.74212C33.1134 5.95354 33.4057 5.26557 33.4216 5.21545C33.4787 5.08673 34.0387 5.45235 34.8987 6.16196ZM22.7848 11.6957C23.3203 11.8605 23.8236 12.3123 24.002 12.7853C24.2371 13.3947 24.1885 14.2619 23.8558 15.3872C23.5718 16.3622 23.0607 17.7169 22.9309 17.8315C22.793 17.9534 20.7481 18.0464 19.0199 18.0108C17.024 17.9606 15.5877 17.8315 13.9081 17.5305C12.1232 17.215 9.77786 16.5915 9.74561 16.4195C9.72112 16.3193 11.3117 15.3515 12.7722 14.5774C15.6689 13.0363 18.533 11.9394 20.3587 11.66C20.6265 11.6171 20.935 11.5669 21.0485 11.5525C21.4216 11.4948 22.3791 11.5738 22.7848 11.6957Z" fill="#000000" />

    </g>
    <text x="35" y="18.333333333333332" font-family="Monospace" font-size="10" fill="#FFFFFF">Hyundai</text>
</svg>
