<?xml version="1.0" encoding="UTF-8"?>
<svg xmlns="http://www.w3.org/2000/svg" data-bbox="0 0 979.998 554.672" viewBox="0 -212.65 979.998 979.972" data-type="shape" fill="#FFFFFF" stroke="#FFFFFF">
    <g fill="#FFFFFF" stroke="#FFFFFF">
        <path d="M431.197 1.123c-199.19 14.71-359.42 92.84-414.29 202.18-3.38 6.76-8.55 20.28-11.33 29.82-4.57 14.91-5.37 21.27-5.57 43.34-.2 30.42 3.78 46.91 17.69 75.54 49.1 101.18 198.2 178.52 383.67 198.99 43.54 4.77 135.18 4.97 176.92.2 128.62-14.71 233.58-52.28 308.53-110.53 44.13-34.39 74.15-74.95 87.27-118.48 7.36-24.65 7.95-61.63 1.19-85.48-10.54-36.78-32.8-71.76-64.61-101.38-74.55-69.58-190.05-115.3-331.39-131.2-32.58-3.79-115.28-5.38-148.08-3zm148.1 62.62c26.84 3.18 68.19 10.54 90.45 16.1 25.25 6.16 64.61 19.48 64.01 21.47-1.19 3.78-38.96 32.4-71.96 54.67-141.74 95.42-253.26 119.88-274.54 60.44-3.78-10.93-3.38-33.4.99-50.49 4.37-17.1 23.66-69.78 33-90.65 5.57-11.93 7.55-14.31 12.33-15.11 12.93-2.39 119.68.39 145.72 3.57zm-255.45 23.26c-19.08 26.24-42.14 66.2-68.38 118.88-47.11 94.62-67.39 142.53-88.86 210.32-1.19 3.78-21.47-10.93-41.55-29.82-61.43-58.04-69.38-128.22-21.87-190.44 29.82-38.76 88.86-77.13 153.07-99.4 19.68-6.96 69.38-21.07 75.14-21.67 1-.19-2.38 5.37-7.55 12.13zm531.17 83.89c19.88 18.69 36.18 42.54 44.73 65.2 5.96 15.31 6.36 18.29 6.36 41.35 0 22.86-.4 26.04-6.16 41.15-18.49 48.7-61.23 88.66-130.81 122.06-30.02 14.31-67.79 27.63-101.78 35.58l-6.36 1.59 12.72-18.49c43.54-62.42 80.31-139.75 129.61-272.35 7.95-21.87 15.11-40.95 15.5-42.34 1.4-3.57 15.12 6.57 36.19 26.25zm-296.79 153.47c13.12 4.57 25.45 17.1 29.82 30.22 5.76 16.9 4.57 40.95-3.58 72.16-6.96 27.04-19.48 64.61-22.66 67.79-3.38 3.38-53.48 5.96-95.82 4.97-48.9-1.39-84.09-4.97-125.24-13.32-43.73-8.75-101.19-26.04-101.98-30.81-.6-2.78 38.37-29.62 74.15-51.09 70.97-42.74 141.14-73.16 185.87-80.91 6.56-1.19 14.12-2.58 16.9-2.98 9.14-1.6 32.6.59 42.54 3.97z" fill="#FFFFFF" stroke="#FFFFFF" />
    </g>
</svg>