<?xml version="1.0" encoding="UTF-8"?>
<svg xmlns="http://www.w3.org/2000/svg" width="400" height="131" viewBox="0 0 400 131" fill="none">
<g clip-path="url(#clip0_7_41)">
<path d="M259.38 29.2499V29.1439C259.38 18.7919 269.141 10.314 282.569 10.314C295.997 10.314 305.634 18.6889 305.634 29.0409V29.1439C305.634 39.4939 295.874 47.9748 282.444 47.9748C269.014 47.9748 259.379 39.5969 259.379 29.2509M295.624 29.2509V29.1439C295.624 22.9039 290.151 17.6999 282.444 17.6999C274.733 17.6999 269.387 22.7989 269.387 29.0409V29.1439C269.387 35.3849 274.857 40.5938 282.569 40.5938C290.279 40.5938 295.624 35.4879 295.624 29.2509ZM311.666 10.94H331.558C337.096 10.94 341.382 12.237 344.243 14.6309C346.667 16.6569 347.973 19.5209 347.973 22.9509V23.0579C347.973 28.9339 344.182 32.6289 338.645 34.3499L349.277 47.3548H338.085L328.758 35.6949H321.24V47.3548H311.666V10.94ZM330.936 28.6259C335.603 28.6259 338.272 26.5459 338.272 23.4769V23.3669C338.272 19.9359 335.41 18.1669 330.747 18.1669H321.24V28.6269H330.935M35.9966 44.8548C32.3306 46.8308 27.9136 47.9738 23.0697 47.9738C9.63771 47.9738 0.000747681 39.5969 0.000747681 29.2499V29.1429C0.000747681 18.7919 9.76071 10.313 23.1927 10.313C36.6176 10.313 46.2566 18.6899 46.2566 29.0399V29.1429C46.2566 32.9359 44.8896 36.5839 42.4046 39.5959L46.8776 42.7718L40.7846 48.4418L35.9966 44.8548ZM28.9166 39.5969L21.8217 34.5569L27.9136 28.8329L35.0656 34.2429C35.8716 32.7279 36.2526 31.0689 36.2526 29.2509V29.1439C36.2526 22.9039 30.7766 17.7009 23.0697 17.7009C15.3587 17.7009 10.0127 22.7999 10.0127 29.0409V29.1439C10.0127 35.3849 15.4867 40.5918 23.1927 40.5918C25.3087 40.5918 27.2336 40.2238 28.9166 39.5969ZM51.6006 31.7459V10.941H61.1755V31.5359C61.1755 37.4639 64.7235 40.5348 70.5665 40.5348C76.4095 40.5348 79.9525 37.5649 79.9525 31.7919V10.941H89.5244V31.4809C89.5244 42.5108 82.1344 47.9208 70.4425 47.9208C58.7505 47.9208 51.6006 42.4608 51.6006 31.7459ZM137.156 10.94H157.359C162.333 10.94 166.249 12.084 168.739 14.1619C170.729 15.8299 171.721 17.8559 171.721 20.3519V20.4609C171.721 24.5689 169.111 26.8629 166.005 28.3069C171.038 29.9249 174.145 32.3689 174.145 37.2639V37.3619C174.145 44.0218 167.681 47.3548 157.854 47.3548H137.156V10.94ZM155.306 25.6629C159.534 25.6629 162.206 24.5139 162.206 21.8089V21.7059C162.206 19.3159 159.966 17.9639 155.929 17.9639H146.481V25.6639H155.305L155.306 25.6629ZM157.854 40.3278C162.084 40.3278 164.634 39.0819 164.634 36.3709V36.2749C164.634 33.8249 162.461 32.3179 157.544 32.3179H146.481V40.3278H157.854ZM179.986 10.94H212.814V18.0669H189.499V25.4489H210.019V32.5789H189.5V40.2248H213.127V47.3548H179.987V10.94M217.226 29.2499V29.1439C217.226 18.7919 226.554 10.314 239.922 10.314C248.128 10.314 253.037 12.605 257.078 15.9339L250.982 21.8089C247.628 19.2609 244.212 17.6999 239.858 17.6999C232.524 17.6999 227.238 22.7989 227.238 29.0409V29.1439C227.238 35.3849 232.399 40.5938 239.858 40.5938C244.833 40.5938 247.881 38.9239 251.298 36.3189L257.388 41.4768C252.913 45.4788 247.939 47.9748 239.548 47.9748C226.741 47.9748 217.226 39.7019 217.226 29.2499ZM96.8004 10.94H129.626V18.0669H106.313V25.4489H126.833V32.5789H106.313V40.2248H129.937V47.3548H96.8004V10.94ZM113.886 0L107.617 8.27097H115.11L121.854 2.92099L113.886 0Z" fill="#000000" />
<path d="M138.299 130.515C138.299 130.515 218.226 5.863 400 50.722C400 50.722 240.126 22.152 138.299 130.515Z" fill="#000000" />
</g>
<defs>
<clipPath id="clip0_7_41">
<rect width="400" height="130.515" fill="#000000" />
</clipPath>
</defs>
</svg>