<svg width="102" height="26" viewBox="0 0 102 26" fill="none" xmlns="http://www.w3.org/2000/svg">
<path fill-rule="evenodd" clip-rule="evenodd" d="M7.16246 3.8753C11.5501 -0.48648 18.6432 -0.503231 23.0501 3.8382L23.051 3.8372C27.6085 8.3265 27.647 15.7107 23.1676 20.2494C18.7259 24.7489 11.5252 24.7489 7.08442 20.2494C5.82938 18.9778 4.14467 18.4066 2.50403 18.5359C2.2993 18.5517 2.1065 18.4391 2.0202 18.2503C1.50515 17.1257 1.12689 15.9238 0.907472 14.6661C0.755986 13.7981 1.38029 12.9852 2.2488 12.9302C2.65552 12.9042 3.06408 12.9005 3.47079 12.9191C3.48272 12.9195 3.49441 12.9202 3.50611 12.921C3.51782 12.9217 3.52954 12.9224 3.54149 12.9229C3.60838 12.9264 3.67612 12.9309 3.74309 12.9353L3.75173 12.9358C6.39217 13.1228 8.98029 14.2372 10.9992 16.2828C13.2788 18.5926 16.9741 18.5917 19.2529 16.2828C21.5499 13.9554 21.5316 10.1694 19.1977 7.8651C16.9952 5.6903 13.4478 5.6344 11.1828 7.7423C10.4401 8.4335 9.91766 9.2689 9.61285 10.1637C9.53481 10.3916 9.29428 10.5191 9.06383 10.4577L5.5613 9.5237C4.75337 9.3088 4.31635 8.4195 4.63861 7.64C5.20599 6.2679 6.04697 4.9842 7.16246 3.8753ZM101.076 25.2155C101.582 24.9336 101.889 24.3894 101.874 23.8052C101.844 22.5717 101.669 21.327 101.339 20.0954C101.289 19.9131 101.136 19.7782 100.95 19.7587C99.4671 19.6043 98.3104 18.3345 98.3104 16.7912V11.4824C98.3104 9.3028 96.7092 6.7782 94.7344 5.9149C91.6144 4.5511 88.57 5.6228 86.8935 7.82C85.7854 6.393 84.075 5.4711 82.1434 5.4711C80.5468 5.4711 79.0944 6.0972 78.0128 7.1215L77.7558 5.8404C77.7126 5.6256 77.5262 5.4711 77.3096 5.4711H73.1845C72.9835 5.4711 72.8201 5.6367 72.8201 5.8404V22.0294C72.8201 22.2843 73.0239 22.4908 73.2754 22.4908H77.8999C78.1514 22.4908 78.3552 22.2843 78.3552 22.0294V12.286C78.3552 11.2349 79.0659 10.3038 80.0794 10.0814C81.5236 9.7642 82.798 10.8703 82.798 12.2777V13.4759V22.0303C82.798 22.2852 83.0018 22.4917 83.2533 22.4917H87.8778C88.1294 22.4917 88.3332 22.2852 88.3332 22.0303V12.286C88.3332 11.2349 89.0437 10.3038 90.0574 10.0814C91.5015 9.7642 92.7761 10.8703 92.7761 12.2777V13.4759V16.6768C92.7761 21.0396 95.9472 24.8062 100.113 25.3931C100.445 25.4396 100.783 25.3792 101.076 25.2155ZM60.6974 17.8901C62.3298 17.8584 63.6436 16.5077 63.6436 14.8463L63.6427 5.8677C63.6427 5.6639 63.8061 5.4984 64.0072 5.4984H68.8134C69.0145 5.4984 69.1778 5.6639 69.1778 5.8677V22.1319C69.1778 22.3356 69.0145 22.5012 68.8134 22.5012H64.5489C64.3772 22.5012 64.2284 22.3793 64.1926 22.2082L63.9282 20.9319C63.4463 21.3849 62.9128 21.7608 62.3335 22.0538C61.4869 22.4827 60.4478 22.7003 59.2441 22.7003C57.1628 22.7003 55.434 22.0361 54.1055 20.7254C52.8651 19.5021 52.195 17.5198 52.1096 14.8295H52.1004L52.0985 14.2305V5.8667C52.0985 5.663 52.262 5.4974 52.4631 5.4974H57.2693C57.4704 5.4974 57.6338 5.663 57.6338 5.8667V13.6659V14.7858C57.6338 16.4928 59.0127 17.9226 60.6974 17.8901ZM35.9494 6.2091C35.4407 6.5049 34.9808 6.891 34.575 7.3626L34.316 5.8073C34.2867 5.6297 34.1343 5.4994 33.957 5.4994H29.5915C29.3905 5.4994 29.2271 5.665 29.2271 5.8687V22.1338C29.2271 22.3376 29.3905 22.5031 29.5915 22.5031H34.3977C34.5988 22.5031 34.7622 22.3376 34.7622 22.1338V14.6668C34.7622 13.4046 35.0386 12.4045 35.5849 11.6939C36.1109 11.0092 36.9372 10.6761 38.1115 10.6761H39.5556C39.8072 10.6761 40.011 10.4696 40.011 10.2148V5.9608C40.011 5.7059 39.8072 5.4994 39.5556 5.4994H39.1608C37.8397 5.4994 36.7591 5.7375 35.9503 6.2082L35.9494 6.2091ZM48.2747 5.4994H43.4695C43.2682 5.4994 43.105 5.6647 43.105 5.8687V22.1329C43.105 22.337 43.2682 22.5022 43.4695 22.5022H48.2747C48.4759 22.5022 48.6392 22.337 48.6392 22.1329V5.8687C48.6392 5.6647 48.4759 5.4994 48.2747 5.4994Z" fill="white"/>
</svg>
