<svg width="102" height="44" viewBox="0 0 102 44" fill="none" xmlns="http://www.w3.org/2000/svg">
<path fill-rule="evenodd" clip-rule="evenodd" d="M7.16246 12.8753C11.5501 8.51352 18.6432 8.49677 23.0501 12.8382L23.051 12.8372C27.6085 17.3265 27.647 24.7107 23.1676 29.2494C18.7259 33.7489 11.5252 33.7489 7.08442 29.2494C5.82938 27.9778 4.14467 27.4066 2.50403 27.5359C2.2993 27.5517 2.1065 27.4391 2.0202 27.2503C1.50515 26.1257 1.12689 24.9238 0.907472 23.6661C0.755986 22.7981 1.38029 21.9852 2.2488 21.9302C2.65552 21.9042 3.06408 21.9005 3.47079 21.9191C3.48272 21.9195 3.49441 21.9202 3.50611 21.921C3.51782 21.9217 3.52954 21.9224 3.54149 21.9229C3.60838 21.9264 3.67612 21.9309 3.74309 21.9353L3.75173 21.9358C6.39217 22.1228 8.98029 23.2372 10.9992 25.2828C13.2788 27.5926 16.9741 27.5917 19.2529 25.2828C21.5499 22.9554 21.5316 19.1694 19.1977 16.8651C16.9952 14.6903 13.4478 14.6344 11.1828 16.7423C10.4401 17.4335 9.91766 18.2689 9.61285 19.1637C9.53481 19.3916 9.29428 19.5191 9.06383 19.4577L5.5613 18.5237C4.75337 18.3088 4.31635 17.4195 4.63861 16.64C5.20599 15.2679 6.04697 13.9842 7.16246 12.8753ZM101.076 34.2155C101.582 33.9336 101.889 33.3894 101.874 32.8052C101.844 31.5717 101.669 30.327 101.339 29.0954C101.289 28.9131 101.136 28.7782 100.95 28.7587C99.4671 28.6043 98.3104 27.3345 98.3104 25.7912V20.4824C98.3104 18.3028 96.7092 15.7782 94.7344 14.9149C91.6144 13.5511 88.57 14.6228 86.8935 16.82C85.7854 15.393 84.075 14.4711 82.1434 14.4711C80.5468 14.4711 79.0944 15.0972 78.0128 16.1215L77.7558 14.8404C77.7126 14.6256 77.5262 14.4711 77.3096 14.4711H73.1845C72.9835 14.4711 72.8201 14.6367 72.8201 14.8404V31.0294C72.8201 31.2843 73.0239 31.4908 73.2754 31.4908H77.8999C78.1514 31.4908 78.3552 31.2843 78.3552 31.0294V21.286C78.3552 20.2349 79.0659 19.3038 80.0794 19.0814C81.5236 18.7642 82.798 19.8703 82.798 21.2777V22.4759V31.0303C82.798 31.2852 83.0018 31.4917 83.2533 31.4917H87.8778C88.1294 31.4917 88.3332 31.2852 88.3332 31.0303V21.286C88.3332 20.2349 89.0437 19.3038 90.0574 19.0814C91.5015 18.7642 92.7761 19.8703 92.7761 21.2777V22.4759V25.6768C92.7761 30.0396 95.9472 33.8062 100.113 34.3931C100.445 34.4396 100.783 34.3792 101.076 34.2155ZM60.6974 26.8901C62.3298 26.8584 63.6436 25.5077 63.6436 23.8463L63.6427 14.8677C63.6427 14.6639 63.8061 14.4984 64.0072 14.4984H68.8134C69.0145 14.4984 69.1778 14.6639 69.1778 14.8677V31.1319C69.1778 31.3356 69.0145 31.5012 68.8134 31.5012H64.5489C64.3772 31.5012 64.2284 31.3793 64.1926 31.2082L63.9282 29.9319C63.4463 30.3849 62.9128 30.7608 62.3335 31.0538C61.4869 31.4827 60.4478 31.7003 59.2441 31.7003C57.1628 31.7003 55.434 31.0361 54.1055 29.7254C52.8651 28.5021 52.195 26.5198 52.1096 23.8295H52.1004L52.0985 23.2305V14.8667C52.0985 14.663 52.262 14.4974 52.4631 14.4974H57.2693C57.4704 14.4974 57.6338 14.663 57.6338 14.8667V22.6659V23.7858C57.6338 25.4928 59.0127 26.9226 60.6974 26.8901ZM35.9494 15.2091C35.4407 15.5049 34.9808 15.891 34.575 16.3626L34.316 14.8073C34.2867 14.6297 34.1343 14.4994 33.957 14.4994H29.5915C29.3905 14.4994 29.2271 14.665 29.2271 14.8687V31.1338C29.2271 31.3376 29.3905 31.5031 29.5915 31.5031H34.3977C34.5988 31.5031 34.7622 31.3376 34.7622 31.1338V23.6668C34.7622 22.4046 35.0386 21.4045 35.5849 20.6939C36.1109 20.0092 36.9372 19.6761 38.1115 19.6761H39.5556C39.8072 19.6761 40.011 19.4696 40.011 19.2148V14.9608C40.011 14.7059 39.8072 14.4994 39.5556 14.4994H39.1608C37.8397 14.4994 36.7591 14.7375 35.9503 15.2082L35.9494 15.2091ZM48.2747 14.4994H43.4695C43.2682 14.4994 43.105 14.6647 43.105 14.8687V31.1329C43.105 31.337 43.2682 31.5022 43.4695 31.5022H48.2747C48.4759 31.5022 48.6392 31.337 48.6392 31.1329V14.8687C48.6392 14.6647 48.4759 14.4994 48.2747 14.4994Z" fill="white"/>
</svg>
