<svg width="169" height="32" viewBox="0 0 169 32" fill="none" xmlns="http://www.w3.org/2000/svg">
<path fill-rule="evenodd" clip-rule="evenodd" d="M16.44 15.73C16.3971 15.1585 16.2414 14.6012 15.982 14.0902C15.7226 13.5792 15.3645 13.1246 14.9285 12.7527C14.4924 12.3809 13.9871 12.099 13.4415 11.9235C12.896 11.7479 12.3211 11.6822 11.75 11.73C7.68 11.73 6.34 15.88 6.34 19.32C6.34 22.76 7.64 26.68 11.62 26.68C14.56 26.68 16.26 24.79 16.62 21.94H22.74C22 28.11 17.74 31.5 11.66 31.5C4.69 31.5 0 26.5 0 19.5C0 12.25 4.29 6.87 11.79 6.87C17.24 6.87 22.25 9.76 22.65 15.73H16.44ZM36 26.66C40.33 26.66 41.62 22.91 41.62 19.21C41.62 15.51 40.33 11.71 36 11.71C31.67 11.71 30.41 15.46 30.41 19.21C30.41 22.96 31.72 26.66 36 26.66ZM36 6.87C43.28 6.87 48 11.75 48 19.21C48 26.67 43.29 31.5 36 31.5C28.71 31.5 24.08 26.62 24.08 19.21C24.08 11.8 28.77 6.87 36 6.87ZM54.75 23.28C54.75 26.08 57.11 27.21 59.62 27.21C61.45 27.21 63.77 26.48 63.77 24.21C63.77 22.27 61.14 21.59 56.58 20.6C52.92 19.79 49.25 18.48 49.25 14.36C49.25 8.36 54.34 6.86 59.25 6.86C64.16 6.86 69 8.59 69.49 14.33H63.49C63.31 11.84 61.43 11.16 59.16 11.16C57.73 11.16 55.63 11.44 55.63 13.33C55.63 15.64 59.2 15.95 62.82 16.81C66.44 17.67 70.14 19.03 70.14 23.37C70.11 29.5 64.84 31.5 59.57 31.5C54.3 31.5 49 29.5 48.72 23.28H54.75ZM77.42 23.28C77.42 26.08 79.78 27.21 82.29 27.21C84.12 27.21 86.44 26.48 86.44 24.21C86.44 22.27 83.8 21.59 79.25 20.6C75.58 19.79 71.92 18.48 71.92 14.36C71.92 8.36 77.01 6.86 81.92 6.86C86.83 6.86 91.62 8.58 92.11 14.32H86.11C85.93 11.83 84.05 11.15 81.77 11.15C80.34 11.15 78.25 11.43 78.25 13.32C78.25 15.63 81.82 15.94 85.44 16.8C89.06 17.66 92.76 19.02 92.76 23.36C92.78 29.5 87.51 31.5 82.24 31.5C76.97 31.5 71.65 29.5 71.39 23.28H77.42ZM110.47 16.68C109.89 13.42 108.47 11.68 105.47 11.68C104.79 11.6419 104.11 11.743 103.47 11.9771C102.831 12.2113 102.246 12.5735 101.752 13.0417C101.258 13.5098 100.864 14.074 100.596 14.6996C100.327 15.3253 100.189 15.9992 100.19 16.68H110.47ZM100.15 20.74C100.33 24.81 102.3 26.66 105.83 26.66C108.37 26.66 110.43 25.08 110.83 23.66H116.42C114.63 29.15 110.83 31.5 105.6 31.5C98.32 31.5 93.81 26.44 93.81 19.21C93.81 12.21 98.59 6.87 105.6 6.87C113.47 6.87 117.26 13.56 116.82 20.74H100.15ZM145 11.8H140.35V23.37C140.35 25.53 140.89 26.08 143.03 26.08C143.701 26.0866 144.371 26.0263 145.03 25.9V30.9C143.801 31.0719 142.561 31.1488 141.32 31.13C137.44 31.13 134.04 30.22 134.04 25.57V11.8H126.53V23.37C126.53 25.53 127.07 26.08 129.21 26.08C129.881 26.0866 130.551 26.0263 131.21 25.9V30.9C129.981 31.0716 128.741 31.1484 127.5 31.13C123.61 31.13 120.22 30.22 120.22 25.57V11.8H116.3V7.5H120.14V0.5H126.48V7.5H134V0.5H140.34V7.5H145V11.8ZM161.64 16.68C161.06 13.42 159.64 11.68 156.59 11.68C155.911 11.6433 155.232 11.7454 154.594 11.9802C153.955 12.215 153.372 12.5775 152.879 13.0455C152.385 13.5135 151.993 14.0772 151.725 14.7021C151.457 15.327 151.319 16 151.32 16.68H161.64ZM151.3 20.74C151.48 24.81 153.45 26.66 156.98 26.66C159.52 26.66 161.58 25.08 161.98 23.66H167.56C165.78 29.15 162 31.5 156.75 31.5C149.47 31.5 145 26.44 145 19.21C145 12.21 149.78 6.87 156.79 6.87C164.65 6.87 168.45 13.56 168 20.74H151.3Z" fill="white"/>
</svg>
