<?xml version="1.0" encoding="UTF-8"?>
<svg xmlns="http://www.w3.org/2000/svg" width="36" height="36" viewBox="0 0 36 36" fill="none">
  <path d="M12.9594 35.6399V30.1679L10.8444 32.2829C9.87237 33.2549 8.53137 33.8129 7.15437 33.8129C5.86737 33.8129 4.65237 33.3359 3.73437 32.4629C2.73537 31.5179 2.17737 30.2399 2.15937 28.8719C2.14137 27.4949 2.66337 26.2079 3.63537 25.2359L9.34137 19.5299C9.74637 19.1249 9.97137 18.5759 9.97137 17.9999C9.97137 17.4239 9.74637 16.8839 9.34137 16.4699C9.14337 16.2719 8.90938 16.1099 8.63937 16.0019C8.37838 15.8939 8.09937 15.8399 7.81138 15.8399H0.359375V12.9599H5.83137L3.63537 10.7639C2.66337 9.79186 2.14137 8.50486 2.15937 7.12786C2.17737 5.75986 2.73537 4.48186 3.73437 3.53686C4.65237 2.66386 5.86737 2.18686 7.15437 2.18686C8.52237 2.18686 9.87237 2.74486 10.8354 3.71686L12.9504 5.83186V0.359863H15.8304V7.82086C15.8304 8.20786 15.9294 8.58586 16.1274 8.91886C16.3254 9.25186 16.6044 9.52186 16.9464 9.71086C17.0094 9.74686 17.0634 9.76486 17.1084 9.79186C17.1984 9.82786 17.2434 9.84586 17.2974 9.86386C17.3964 9.89986 17.4414 9.90886 17.4864 9.91786C17.6124 9.94486 17.6664 9.95386 17.7114 9.96286C17.8374 9.98086 17.9094 9.98086 17.9814 9.98086C18.0714 9.98086 18.1344 9.98086 18.1974 9.97186C18.2334 9.97186 18.4044 9.94486 18.4044 9.94486C18.4494 9.93586 18.5034 9.92686 18.5484 9.90886C18.6564 9.88186 18.7014 9.86386 18.7554 9.84586C18.8544 9.80986 18.9084 9.78286 18.9534 9.75586C19.0524 9.70186 19.1064 9.67486 19.1514 9.63886C19.2954 9.54886 19.4124 9.44986 19.5114 9.35086C19.9254 8.92786 20.1414 8.38786 20.1414 7.82086V0.359863H23.0214V5.83186L25.2174 3.63586C26.1714 2.68186 27.4314 2.15986 28.7814 2.15986C30.1314 2.15986 31.3914 2.68186 32.3454 3.63586C33.2994 4.58986 33.8214 5.84986 33.8214 7.19986C33.8214 8.54986 33.2994 9.80986 32.3454 10.7639L26.6394 16.4699C26.2344 16.8749 26.0094 17.4149 26.0094 17.9999C26.0094 18.5849 26.2344 19.1249 26.6394 19.5299C26.8374 19.7279 27.0714 19.8899 27.3414 19.9979C27.6024 20.1059 27.8814 20.1599 28.1694 20.1599H35.6304V23.0399H30.1584L32.3544 25.2359C34.3164 27.1979 34.3164 30.4019 32.3544 32.3639C31.4004 33.3179 30.1404 33.8399 28.7904 33.8399C27.4404 33.8399 26.1804 33.3179 25.2264 32.3639L23.0304 30.1679V35.6399H20.1504V28.1789C20.1504 27.8999 20.0964 27.6209 19.9884 27.3509C19.8804 27.0899 19.7184 26.8469 19.5204 26.6489C19.4664 26.5949 19.4124 26.5499 19.3584 26.5049L19.2054 26.3879L19.0254 26.2799L18.8184 26.1809L18.6114 26.1089L18.4134 26.0639L18.2064 26.0369C18.1344 26.0369 18.0624 26.0279 17.9904 26.0279C17.9184 26.0279 17.8464 26.0279 17.7744 26.0369L17.5674 26.0639L17.3604 26.1179L17.1714 26.1899L16.9644 26.2889L16.8024 26.3879C16.8024 26.3879 16.7304 26.4419 16.6944 26.4599C16.5684 26.5589 16.5234 26.6039 16.4694 26.6489C16.2624 26.8469 16.1094 27.0899 16.0014 27.3509C15.8934 27.6119 15.8394 27.8909 15.8394 28.1789V35.6309H12.9594V35.6399ZM17.9994 23.1389C19.3494 23.1389 20.6094 23.6609 21.5634 24.6149L27.2694 30.3209C27.6744 30.7259 28.2324 30.9509 28.7994 30.9509C29.3664 30.9509 29.9154 30.7259 30.3294 30.3209C30.7344 29.9159 30.9594 29.3579 30.9594 28.7909C30.9594 28.2239 30.7254 27.6659 30.3294 27.2609L24.6234 21.5549C22.6614 19.5929 22.6614 16.3889 24.6234 14.4269L30.3294 8.72086C30.7254 8.30686 30.9414 7.76686 30.9414 7.19986C30.9414 6.63286 30.7074 6.09286 30.3114 5.68786C29.9064 5.28286 29.3754 5.05786 28.7994 5.05786C28.2144 5.05786 27.6834 5.27386 27.2784 5.66086L21.5634 11.3759C20.6094 12.3299 19.3494 12.8519 17.9994 12.8519C16.6494 12.8519 15.3894 12.3299 14.4354 11.3759L8.72937 5.66986C8.31537 5.27386 7.79337 5.06686 7.22637 5.06686C6.63237 5.06686 6.10137 5.30086 5.69637 5.69686C5.29137 6.10186 5.06637 6.63286 5.06637 7.19986C5.06637 7.76686 5.27337 8.30686 5.66937 8.72086L11.3844 14.4359C12.3384 15.3899 12.8604 16.6499 12.8604 17.9999C12.8604 19.3499 12.3384 20.6099 11.3844 21.5639L5.67837 27.2699C5.27337 27.6839 5.05737 28.2239 5.05737 28.7999C5.05737 29.3759 5.28237 29.9159 5.68737 30.3119C6.09237 30.7169 6.63237 30.9419 7.19937 30.9419C7.77537 30.9419 8.31537 30.7259 8.72037 30.3209L14.4354 24.6149C15.3894 23.6609 16.6494 23.1389 17.9994 23.1389Z" fill="#FFFFFF" />
</svg>