<svg width="25" height="25" viewBox="0 0 25 25" fill="none" xmlns="http://www.w3.org/2000/svg">
<g clip-path="url(#clip0_7_44)">
<path d="M16.9521 12.5C16.9521 14.9588 14.9588 16.9521 12.5 16.9521C10.0412 16.9521 8.04794 14.9588 8.04794 12.5C8.04794 10.0412 10.0412 8.04794 12.5 8.04794C14.9588 8.04794 16.9521 10.0412 16.9521 12.5Z" fill="white"/>
<path d="M16.9521 17.637C16.9521 18.8178 16.483 19.9501 15.6481 20.7851C14.8132 21.62 13.6808 22.089 12.5 22.089C11.3192 22.089 10.1868 21.62 9.35192 20.7851C8.517 19.9501 8.04794 18.8178 8.04794 17.637H16.9521ZM17.637 17.637H21.8607C21.8607 18.7572 21.4157 19.8315 20.6236 20.6236C19.8315 21.4157 18.7572 21.8607 17.637 21.8607V17.637ZM16.3556 22.774C15.9648 23.4508 15.4028 24.0128 14.726 24.4035C14.0492 24.7943 13.2815 25 12.5 25C11.7185 25 10.9508 24.7943 10.274 24.4035C9.59717 24.0128 9.03515 23.4508 8.6444 22.774H16.3556Z" fill="white"/>
<path d="M7.36299 16.9521C6.18223 16.9521 5.04983 16.483 4.21491 15.6481C3.37998 14.8132 2.91093 13.6808 2.91093 12.5C2.91093 11.3192 3.37998 10.1868 4.21491 9.35192C5.04983 8.517 6.18223 8.04794 7.36299 8.04794V16.9521ZM7.36299 17.637V21.8607C6.24278 21.8607 5.16845 21.4157 4.37635 20.6236C3.58424 19.8315 3.13924 18.7572 3.13924 17.637H7.36299ZM2.226 16.3556C1.5492 15.9648 0.987182 15.4028 0.596432 14.726C0.205682 14.0492 -3.05176e-05 13.2815 -3.05176e-05 12.5C-3.05176e-05 11.7185 0.205682 10.9508 0.596432 10.274C0.987182 9.59717 1.5492 9.03515 2.226 8.6444V16.3556Z" fill="white"/>
<path d="M8.04794 7.36299C8.04794 6.18223 8.517 5.04983 9.35192 4.21491C10.1868 3.37998 11.3192 2.91093 12.5 2.91093C13.6808 2.91093 14.8132 3.37998 15.6481 4.21491C16.483 5.04983 16.9521 6.18223 16.9521 7.36299H8.04794ZM7.36301 7.36299H3.13927C3.13927 6.24278 3.58427 5.16845 4.37637 4.37635C5.16848 3.58424 6.2428 3.13924 7.36301 3.13924V7.36299ZM8.6444 2.226C9.03515 1.5492 9.59717 0.987182 10.274 0.596432C10.9508 0.205682 11.7185 -3.05176e-05 12.5 -3.05176e-05C13.2815 -3.05176e-05 14.0492 0.205682 14.726 0.596432C15.4028 0.987182 15.9648 1.5492 16.3556 2.226H8.6444Z" fill="white"/>
<path d="M17.637 8.04794C18.8177 8.04794 19.9501 8.517 20.7851 9.35192C21.62 10.1868 22.089 11.3192 22.089 12.5C22.089 13.6808 21.62 14.8132 20.7851 15.6481C19.9501 16.483 18.8177 16.9521 17.637 16.9521V8.04794ZM17.637 7.36301V3.13927C18.7572 3.13927 19.8315 3.58427 20.6236 4.37637C21.4157 5.16848 21.8607 6.2428 21.8607 7.36301H17.637ZM22.774 8.6444C23.4508 9.03515 24.0128 9.59717 24.4035 10.274C24.7943 10.9508 25 11.7185 25 12.5C25 13.2815 24.7943 14.0492 24.4035 14.726C24.0128 15.4028 23.4508 15.9648 22.774 16.3556V8.6444Z" fill="white"/>
</g>
<defs>
<clipPath id="clip0_7_44">
<rect width="25" height="25" fill="white"/>
</clipPath>
</defs>
</svg>
