<?xml version="1.0" encoding="UTF-8"?>
<svg xmlns="http://www.w3.org/2000/svg" data-bbox="-219 -219 438 438" viewBox="-219 -219 438 438" data-type="color">
    <g>
        <path fill="#FFFFFF" d="M78 0c0 43.078-34.922 78-78 78S-78 43.078-78 0s34.922-78 78-78S78-43.078 78 0z" data-color="1" />
        <path d="M78 90a78 78 0 0 1-156 0zm12 0h74a74 74 0 0 1-74 74zm-22.45 90a78 78 0 0 1-135.1 0z" fill="#FFFFFF" data-color="1" />
        <path d="M-90 78a78 78 0 0 1 0-156zm0 12v74a74 74 0 0 1-74-74zm-90-22.45a78 78 0 0 1 0-135.1z" fill="#FFFFFF" data-color="1" />
        <path d="M-78-90a78 78 0 0 1 156 0zm-12 0h-74a74 74 0 0 1 74-74zm22.45-90a78 78 0 0 1 135.1 0z" fill="#FFFFFF" data-color="1" />
        <path d="M90-78a78 78 0 0 1 0 156zm0-12v-74a74 74 0 0 1 74 74zm90 22.45a78 78 0 0 1 0 135.1z" fill="#FFFFFF" data-color="1" />
    </g>
</svg>