<?xml version="1.0" encoding="UTF-8"?>
<svg xmlns="http://www.w3.org/2000/svg" viewBox="0 0 135 52" aria-labelledby="brand-title" role="img">
        <title id="brand-title">Tink</title>
        <path d="M125.7 52h9.9L120 28.9l13-15.1h-10.6l-16.2 18.8V4h-8v48h8v-6.8l8.4-9.8z" />
        <path fill="#000000" d="M38.3 0h8.1v8.06h-8.1z" />
        <path d="M81.9 52V26.3a4.6 4.6 0 00-4.7-4.5H62.8V52h-8.1V13.8h25.7c2.8-.1 9.2 1.8 9.7 8.9.1.9-.1 29.3-.1 29.3zM8.1 43.1c.5 7 6.9 8.9 9.6 8.9h28.7V13.8h-8.1V44H16.1V21.8h16.4v-8H16.1V4h-8v9.7H0v8.1h8.1z" />
      </svg>