<svg width="100" height="100" viewBox="0 0 100 100" fill="none" xmlns="http://www.w3.org/2000/svg">
<path fill-rule="evenodd" clip-rule="evenodd" d="M0 99.992H100V0H0V99.992Z" fill="white"/>
<path fill-rule="evenodd" clip-rule="evenodd" d="M75.954 54.832C73.535 53.804 72.534 53.378 72.534 52.127C72.534 51.395 73.128 50.613 74.797 50.613C76.005 50.613 77.527 51.256 78.547 51.859L78.618 51.901L78.653 51.826L80.428 48.016L80.37 47.982C78.684 46.9791 76.7587 46.4495 74.797 46.449C69.981 46.449 67.788 49.434 67.788 52.208C67.788 54.868 69.333 56.785 72.511 58.068C75.465 59.258 75.984 59.941 75.984 60.935C75.984 61.998 75.219 62.584 73.829 62.584C72.13 62.584 70.169 61.932 68.584 60.841L68.511 60.791L66.691 64.7L66.663 64.759L66.717 64.794C68.737 66.128 71.477 66.99 73.695 66.99C75.911 66.99 77.755 66.33 79.028 65.08C80.16 63.967 80.783 62.438 80.783 60.773C80.783 59.401 80.457 58.338 79.757 57.428C79.002 56.447 77.758 55.598 75.954 54.832ZM95.064 46.772H82.52V66.667H95.139V62.34H87.239V58.64H94.29V54.504H87.238V51.125H95.138V46.773L95.064 46.772ZM50.197 46.772H37.653V66.667H50.273V62.34H42.373V58.64H49.423V54.504H42.373V51.125H50.273V46.773L50.197 46.772ZM61.155 54.832C58.735 53.804 57.734 53.378 57.734 52.127C57.734 51.395 58.328 50.613 59.997 50.613C61.206 50.613 62.727 51.256 63.747 51.859L63.819 51.901L63.854 51.826L65.628 48.016L65.57 47.982C63.884 46.9791 61.9587 46.4495 59.997 46.449C55.182 46.449 52.989 49.434 52.989 52.208C52.989 54.868 54.533 56.785 57.711 58.068C60.665 59.258 61.185 59.941 61.185 60.935C61.185 61.998 60.419 62.584 59.029 62.584C57.33 62.584 55.369 61.932 53.784 60.841L53.711 60.791L53.674 60.871L51.89 64.7L51.863 64.759L51.917 64.794C53.937 66.128 56.676 66.99 58.894 66.99C61.111 66.99 62.954 66.33 64.227 65.08C65.359 63.967 65.983 62.438 65.983 60.773C65.983 59.401 65.657 58.338 64.956 57.428C64.201 56.447 62.959 55.598 61.155 54.832ZM10.95 56.787C10.52 56.787 10.225 56.76 9.58 56.733V51.103C10.1414 51.0301 10.7069 50.994 11.273 50.995C13.53 50.995 14.578 52.235 14.578 53.824C14.578 55.736 13.368 56.787 10.95 56.787ZM16.983 48.676C15.418 47.342 13.148 46.638 10.418 46.638C8.784 46.638 6.937 46.746 4.928 46.961L4.861 46.968V66.667H9.58V60.77L9.834 60.781C10.284 60.802 10.673 60.821 11.198 60.821C16.167 60.821 19.254 58.108 19.254 53.741C19.254 51.692 18.469 49.94 16.984 48.675L16.983 48.676ZM26.735 56.463C26.197 56.463 25.875 56.436 25.284 56.383V50.942C25.8695 50.8415 26.4631 50.7963 27.057 50.807C29.019 50.807 30.309 51.777 30.309 53.42C30.309 55.413 28.911 56.463 26.735 56.463ZM31.928 59.142C33.923 57.922 35.065 55.782 35.065 53.258C35.065 49.05 31.923 46.638 26.445 46.638C24.403 46.638 22.61 46.738 20.632 46.961L20.565 46.969V66.667H25.284V60.205L25.624 60.221C26.05 60.241 26.387 60.256 26.901 60.256C27.15 60.256 27.385 60.256 27.637 60.233L30.973 66.626L30.994 66.666H36.358L36.291 66.553L31.928 59.142ZM15.383 43.057H15.431L15.451 43.013L17.396 38.838L17.446 38.731H9.58V23.162H4.86V43.057H15.382M24.945 36.047L27.057 30.706L29.142 36.047H24.945ZM36.745 42.95L27.475 23.044L27.455 23.001H26.74L26.72 23.044L17.45 42.95L17.4 43.057H22.217L22.236 43.01L23.694 39.474H30.392L31.852 43.01L31.871 43.057H36.795L36.745 42.95Z" fill="black"/>
</svg>
