<svg width="200" height="64" viewBox="0 0 200 64" fill="none" xmlns="http://www.w3.org/2000/svg">
<path d="M53.071 0.099999H10.644C4.467 0.099999 0 4.567 0 10.486C0 16.408 4.467 20.875 10.646 20.875H21.211V52.83C21.211 59.75 25.938 63.855 31.857 63.855C37.779 63.855 42.503 59.768 42.503 52.83V20.854H53.071C59.251 20.854 63.715 16.387 63.715 10.468C63.715 4.567 59.271 0.099999 53.071 0.099999Z" fill="black"/>
<path d="M113.418 47.07L93.561 7.376C91.009 2.376 87.639 0.099999 83.375 0.099999C77.274 0.099999 72.726 4.744 72.726 10.567C72.726 12.659 73.186 14.574 74.363 16.847L94.2 56.54C96.752 61.545 100.12 63.818 104.386 63.818C110.487 63.818 115.032 59.172 115.032 53.352C115.052 51.257 114.595 49.342 113.418 47.072V47.07Z" fill="black"/>
<path d="M114.874 10.925C114.874 17.026 119.598 21.753 125.699 21.753C131.8 21.753 136.524 17.026 136.524 10.925C136.524 4.824 131.8 0.099999 125.697 0.099999C119.597 0.099999 114.874 4.824 114.874 10.925Z" fill="black"/>
<path d="M157.834 52.992C157.834 46.891 153.11 42.164 147.009 42.164C140.908 42.164 136.163 46.891 136.163 52.992C136.163 59.091 140.89 63.817 146.991 63.817C153.09 63.817 157.834 59.091 157.834 52.99V52.992Z" fill="black"/>
<path d="M159.331 16.847L179.168 56.539C181.719 61.544 185.088 63.817 189.354 63.817C195.455 63.817 200 59.171 200 53.351C200 51.256 199.54 49.341 198.365 47.071L178.55 7.375C175.999 2.375 172.629 0.098999 168.343 0.098999C162.243 0.098999 157.698 4.743 157.698 10.566C157.698 12.658 158.158 14.573 159.33 16.846L159.331 16.847Z" fill="black"/>
</svg>
