<?xml version="1.0" encoding="UTF-8"?>
<svg xmlns="http://www.w3.org/2000/svg" viewBox="0 0 571.229 125.562">
  <g fill="#FFFFFF">
    <path d="M504.954 125.557c-4.709 0-9.131-.42-13.288-1.255a43.488 43.488 0 01-6.967-1.732c-6.045-1.944-11.31-4.813-15.649-8.489-4.263-3.685-7.689-8.135-9.982-13.297-2.35-5.153-3.572-11.089-3.572-17.497 0-2.987.267-6.12.803-9.3 1.425-8.418 4.353-15.869 8.456-22.253 4.117-6.384 9.359-11.744 15.413-16.095 11.988-8.578 27.064-13.023 41.927-13.023h.163c7.349 0 15.135 1.26 22.31 3.916 3.721 1.382 7.312 3.204 10.572 5.469 4.702 3.318 8.741 7.503 11.558 12.863 2.85 5.317 4.532 11.782 4.532 19.327 0 3.152-.281 6.45-.894 9.999-1.614 9.777-5.098 17.926-9.824 24.57-4.676 6.691-10.546 11.862-16.902 15.798-12.717 7.894-27.29 10.961-38.494 10.999h-.162m-2.98-25.24c2.076.868 4.483 1.307 6.908 1.307h.17c3.107 0 5.877-.67 8.456-1.944 2.576-1.147 4.891-2.968 6.823-5.408 2.057-2.378 3.716-5.313 5.127-8.823 1.396-3.445 2.449-7.432 3.213-11.99.512-3.161.821-6.115.821-8.777 0-2.803-.309-5.341-.88-7.564-.642-2.218-1.54-4.11-2.787-5.709-1.649-2.067-3.935-3.53-6.823-4.275-1.437-.359-3.069-.557-4.794-.557h-.184c-5.764 0-10.969 2.203-15.074 6.714-2.133 2.256-3.923 5.101-5.398 8.555-1.503 3.449-2.711 7.47-3.411 12.141-.604 3.431-.88 6.432-.88 9.097v.123c0 6.965 1.807 11.547 4.659 14.42 1.213 1.204 2.547 2.053 4.054 2.69M380.572 25.886h36.916s-1.545 8.319-2.154 11.641l-.04.312.208-.199c4.388-4.454 9.794-7.394 14.361-9.333 4.643-1.954 8.538-2.987 9.977-3.247a38.153 38.153 0 015.879-.882 66.08 66.08 0 016.451-.307 77.2 77.2 0 015.639.217l2.72.335-6.556 32.827h-2.376c-1.798-.231-3.739-.292-5.74-.292-2.866 0-5.775.123-8.441.476-2.652.349-5.026.873-6.795 1.524-3.975 1.335-7.295 2.802-10.048 4.487-2.779 1.613-4.992 3.43-6.832 5.516-1.838 1.991-3.254 4.261-4.365 6.79-1.153 2.52-2.019 5.332-2.786 8.465-2.485 10.537-7.699 38.513-7.699 38.513l-36.687.029 18.368-96.872M304.39 115.558c-3.586-2.807-6.63-6.209-8.722-10.135-2.189-4.006-3.435-8.706-3.435-14.09 0-2.51.276-5.186.89-7.998l7.682-34.366H287.24l4.301-23.084h13.297l3.058-16.095L344.618 0l-5.091 25.886h23.921l-4.209 23.084h-23.27l-6.745 29.699a21.62 21.62 0 00-.481 4.416c.043 2.09.304 4.091.835 5.922 2.793 9.551 11.171 10.329 19.669 9.187l-4.325 24.565s-6.498 1.524-15.123 1.524h-.019c-8.703.25-18.178-3.043-25.39-8.725M210.013 124.557a31.689 31.689 0 01-3.657-.594c-3.244-.637-6.33-1.392-9.21-2.449-14.047-5.086-25.726-20.394-25.754-39.787v-.047c0-2.227.174-4.549.484-6.898 1.024-7.474 2.937-14.486 5.808-20.776 2.874-6.271 6.769-11.91 11.745-16.482 4.959-4.634 11.027-8.352 18.299-10.867 7.224-2.562 15.661-3.888 25.445-3.921.774 0 1.581.033 2.324.033 4.865.123 9.829 1 14.538 2.633.34.146.649.222.972.34 5.015 1.826 9.824 4.506 13.997 8.064 4.103 3.515 7.576 7.823 10.065 12.972 2.43 5.172 3.877 11.117 3.877 17.86 0 4.034-.538 8.356-1.635 13.023l-.462 1.873h-2.152l-69.805-.245-.049.052c-.029.425-.029.769-.029 1.199 0 5.45 2.619 11.027 7.316 15.255 2.725 2.458 6.179 4.478 10.213 5.719 2.857.906 6.045 1.378 9.506 1.378.932 0 1.883 0 2.904-.094 9.416-.732 19.12-1.769 29.817-6.134l4.865-2.006-8.604 23.999-.923.472c-8.182 3.902-21.769 6.436-35.515 6.436h-.184a101.38 101.38 0 01-14.196-1.008m36.64-64.169l.028-.052c.111-1.142.213-2.213.213-3.251v-.065c0-4.365-1.387-7.96-3.879-10.358-1.729-1.661-3.987-2.784-6.754-3.322-1.286-.259-2.64-.434-4.094-.434h-.188c-10.416.08-18.797 6.436-22.454 17.388l-.01.094h37.138zM55.899 122.84l13.835-62.757c.12-.67.222-1.236.222-1.788v-.08c0-1.987-.835-3.818-2.158-5.04a6.925 6.925 0 00-1.954-1.298c-1.057-.524-2.289-.778-3.634-.778-5.311.08-10.254 3.931-11.374 8.918L36.713 122.84H0l12.854-59.978c1.163-5.332 2.73-10.631 4.966-15.515 2.213-4.832 5.075-9.352 8.76-13.061 3.688-3.77 8.17-6.932 13.729-9.079 5.618-2.199 12.181-3.355 20.057-3.355 1.494 0 3.103 0 4.758.118 1.968.132 3.855.373 5.667.689 9.1 1.717 16.072 6.238 21.3 12.377l.043.042.123-.042c4.735-3.634 10.397-6.903 16.47-9.235 6.025-2.345 12.36-3.798 18.395-3.831h.715c4.754 0 8.982.382 12.592 1.222 1.309.297 2.517.599 3.707.986 4.468 1.444 8.097 3.563 10.9 6.111 2.751 2.6 4.804 5.794 6.137 9.338 1.305 3.477 1.895 7.436 1.895 11.664 0 3.605-.434 7.555-1.309 11.499l-12.739 60.05h-37.076l12.868-62.451c.092-.623.165-1.193.165-1.755v-.071a7.184 7.184 0 00-2.17-5.115c-.484-.354-.965-.712-1.58-1.052-1.095-.618-2.472-.939-3.933-.939h-.052c-5.297.08-10.24 3.874-11.384 8.876l-12.37 62.508H55.899" />
  </g>
</svg>