<svg width="526" height="686" viewBox="0 0 526 686" fill="none" xmlns="http://www.w3.org/2000/svg">
<path d="M138.412 670.498C121.878 653.961 116.868 610.15 128.15 580.75C132.449 569.561 147.477 564.801 178.569 564.801C228.403 564.801 227.1 562.058 209.454 630.344C195.135 685.778 168.658 700.744 138.412 670.498ZM453.632 666.898C440.406 656.487 419.084 629.258 406.25 606.395L382.917 564.83H431.46H480.002L502.752 617.601C515.264 646.624 525.474 673.767 525.44 677.927C525.325 692.773 477.258 685.161 453.632 666.561V666.898ZM142.457 532.058C142.629 525.127 155.295 469.813 170.668 409.138L198.619 298.835L231.66 352.533L264.703 406.23L247.74 475.453L230.778 544.664H186.488C157.639 544.664 142.288 540.264 142.457 532.058ZM295.974 420.304C255.766 352.144 222.867 293.253 222.867 289.43C222.867 285.601 251.227 282.487 285.89 282.493H348.914L404.374 404.618C434.878 471.784 461.347 530.773 463.196 535.693C465.042 540.607 444.625 544.555 417.819 544.441H369.082L295.974 420.51V420.304ZM23.6206 317.904C45.7063 283.813 48.3701 282.727 110.844 282.607H175.287L131.012 317.807C96.172 345.498 77.5847 353.024 43.7884 353.098H0.839762L23.6206 317.904ZM29.8885 224.504C17.2125 202.281 15.5925 181.744 21.7348 121.144C27.674 62.5554 26.1535 40.4068 14.9809 22.8297L0.560226 0.143978H110.727H220.894L230.954 27.8697C236.487 43.1211 261.739 99.8468 287.071 153.915L333.128 252.235H189.418H45.7086L29.8885 224.504Z" fill="black"/>
</svg>
