<?xml version="1.0" encoding="UTF-8"?>
<svg xmlns="http://www.w3.org/2000/svg" data-bbox="0 0 92.428 122.888" viewBox="-15.25 0 122.928 122.888" data-type="color">
    <g>
        <path fill="#FFFFFF" d="M16.584 48.744c-6.3 2.3-13.4-.9-15.8-7.3-2.4-6.4.9-13.4 7.3-15.8l67.8-24.9c6.3-2.3 13.4.9 15.8 7.3 2.3 6.3-.9 13.4-7.3 15.8l-67.8 24.9zm0 36.7c-6.3 2.3-13.4-.9-15.8-7.3-2.4-6.4.9-13.4 7.3-15.8l67.8-24.9c6.3-2.3 13.4.9 15.8 7.3 2.3 6.3-.9 13.4-7.3 15.8l-67.8 24.9zm0 36.7c-6.3 2.3-13.4-.9-15.8-7.3-2.3-6.3.9-13.4 7.3-15.8l67.8-24.8c6.3-2.3 13.4.9 15.8 7.3 2.3 6.3-.9 13.4-7.3 15.8l-67.8 24.8z" data-color="1" />
    </g>
</svg>