<svg width="253" height="60" viewBox="0 0 253 60" fill="none" xmlns="http://www.w3.org/2000/svg">
<path d="M8.53792 23.7992C5.46295 24.9222 1.99751 23.3598 0.82609 20.235C-0.345328 17.1102 1.26537 13.6924 4.38915 12.5206L37.4817 0.36321C40.5567 -0.759764 44.0221 0.802634 45.1935 3.92743C46.3161 7.0034 44.7542 10.47 41.6305 11.6418L8.53792 23.7992ZM8.53792 41.7179C5.46295 42.8409 1.99751 41.2785 0.82609 38.1537C-0.345328 35.0289 1.26537 31.6112 4.38915 30.4394L37.4817 18.282C40.5567 17.159 44.0221 18.7214 45.1935 21.8462C46.3161 24.9222 44.7542 28.3887 41.6305 29.5605L8.53792 41.7179ZM8.53792 59.6367C5.46295 60.7597 1.99751 59.1973 0.82609 56.0725C-0.296518 52.9965 1.26537 49.5299 4.38915 48.3581L37.4817 36.2495C40.5567 35.1266 44.0221 36.689 45.1935 39.8138C46.3161 42.8897 44.7542 46.3563 41.6305 47.5281L8.53792 59.6367Z" fill="white"/>
<path d="M62.664 43V16.756H81.384V20.86H66.408L67.416 19.816V39.94L66.408 38.896H81.456V43H62.664ZM66.408 31.552V27.7H79.62V31.552H66.408ZM85.3749 43V16.756H98.2989C99.3549 16.756 100.315 16.852 101.179 17.044C102.067 17.236 102.859 17.524 103.555 17.908C104.251 18.292 104.839 18.772 105.319 19.348C105.799 19.924 106.171 20.596 106.435 21.364C106.699 22.108 106.831 22.948 106.831 23.884C106.831 25.516 106.399 26.896 105.535 28.024C104.695 29.128 103.519 29.884 102.007 30.292V30.508C103.039 30.676 103.867 30.988 104.491 31.444C105.115 31.876 105.571 32.44 105.859 33.136C106.147 33.832 106.291 34.672 106.291 35.656V40.084C106.291 40.54 106.303 41.02 106.327 41.524C106.375 42.004 106.507 42.496 106.723 43H101.899C101.755 42.664 101.647 42.244 101.575 41.74C101.527 41.236 101.503 40.672 101.503 40.048V36.484C101.503 35.668 101.383 34.996 101.143 34.468C100.903 33.916 100.471 33.496 99.8469 33.208C99.2229 32.896 98.3229 32.74 97.1469 32.74H89.6589V28.96H97.2189C98.9229 28.96 100.135 28.564 100.855 27.772C101.575 26.956 101.935 25.948 101.935 24.748C101.935 24.004 101.815 23.392 101.575 22.912C101.359 22.408 101.035 22 100.603 21.688C100.195 21.352 99.7029 21.112 99.1269 20.968C98.5509 20.8 97.9149 20.716 97.2189 20.716H90.1269V43H85.3749ZM111.25 43V16.756H116.002V43H111.25ZM133.148 43.324C131.18 43.324 129.392 43.024 127.784 42.424C126.2 41.8 124.832 40.912 123.68 39.76C122.528 38.608 121.64 37.204 121.016 35.548C120.416 33.868 120.116 31.972 120.116 29.86C120.116 27.748 120.416 25.864 121.016 24.208C121.64 22.552 122.528 21.148 123.68 19.996C124.832 18.844 126.2 17.968 127.784 17.368C129.392 16.744 131.18 16.432 133.148 16.432C135.356 16.432 137.324 16.816 139.052 17.584C140.78 18.352 142.184 19.432 143.264 20.824C144.344 22.192 145.004 23.812 145.244 25.684H140.384C140.168 24.652 139.736 23.752 139.088 22.984C138.44 22.216 137.612 21.616 136.604 21.184C135.596 20.752 134.444 20.536 133.148 20.536C131.492 20.536 130.052 20.896 128.828 21.616C127.628 22.312 126.692 23.356 126.02 24.748C125.348 26.14 125.012 27.844 125.012 29.86C125.012 31.372 125.204 32.716 125.588 33.892C125.972 35.068 126.512 36.052 127.208 36.844C127.928 37.636 128.78 38.236 129.764 38.644C130.772 39.028 131.9 39.22 133.148 39.22C134.42 39.22 135.56 39.004 136.568 38.572C137.576 38.14 138.416 37.54 139.088 36.772C139.76 35.98 140.192 35.068 140.384 34.036H145.244C145.028 35.884 144.368 37.516 143.264 38.932C142.184 40.324 140.78 41.404 139.052 42.172C137.324 42.94 135.356 43.324 133.148 43.324ZM158.928 43.324C156.576 43.324 154.608 42.964 153.024 42.244C151.464 41.524 150.288 40.516 149.496 39.22C148.704 37.924 148.296 36.448 148.272 34.792H153.132C153.156 35.776 153.372 36.628 153.78 37.348C154.212 38.068 154.86 38.632 155.724 39.04C156.588 39.448 157.704 39.652 159.072 39.652C160.176 39.652 161.136 39.52 161.952 39.256C162.768 38.992 163.392 38.584 163.824 38.032C164.28 37.456 164.508 36.736 164.508 35.872C164.508 35.2 164.4 34.648 164.184 34.216C163.968 33.76 163.608 33.388 163.104 33.1C162.6 32.788 161.928 32.524 161.088 32.308C160.248 32.092 159.216 31.876 157.992 31.66C156.48 31.42 155.148 31.108 153.996 30.724C152.868 30.316 151.92 29.824 151.152 29.248C150.384 28.672 149.808 27.976 149.424 27.16C149.04 26.32 148.848 25.324 148.848 24.172C148.848 22.588 149.244 21.22 150.036 20.068C150.852 18.916 152.004 18.028 153.492 17.404C154.98 16.756 156.756 16.432 158.82 16.432C160.86 16.432 162.6 16.756 164.04 17.404C165.504 18.052 166.632 18.964 167.424 20.14C168.216 21.292 168.624 22.636 168.648 24.172H163.824C163.8 23.236 163.56 22.468 163.104 21.868C162.648 21.244 162.036 20.788 161.268 20.5C160.5 20.212 159.624 20.068 158.64 20.068C157.632 20.068 156.768 20.212 156.048 20.5C155.328 20.764 154.776 21.16 154.392 21.688C154.008 22.192 153.816 22.816 153.816 23.56C153.816 24.376 154.008 25.024 154.392 25.504C154.8 25.96 155.484 26.332 156.444 26.62C157.428 26.908 158.772 27.196 160.476 27.484C161.628 27.676 162.732 27.916 163.788 28.204C164.844 28.492 165.804 28.924 166.668 29.5C167.532 30.052 168.204 30.82 168.684 31.804C169.188 32.764 169.44 34.012 169.44 35.548C169.44 37.084 169.044 38.44 168.252 39.616C167.46 40.792 166.284 41.704 164.724 42.352C163.164 43 161.232 43.324 158.928 43.324ZM183.502 43.324C181.15 43.324 179.182 42.964 177.598 42.244C176.038 41.524 174.862 40.516 174.07 39.22C173.278 37.924 172.87 36.448 172.846 34.792H177.706C177.73 35.776 177.946 36.628 178.354 37.348C178.786 38.068 179.434 38.632 180.298 39.04C181.162 39.448 182.278 39.652 183.646 39.652C184.75 39.652 185.71 39.52 186.526 39.256C187.342 38.992 187.966 38.584 188.398 38.032C188.854 37.456 189.082 36.736 189.082 35.872C189.082 35.2 188.974 34.648 188.758 34.216C188.542 33.76 188.182 33.388 187.678 33.1C187.174 32.788 186.502 32.524 185.662 32.308C184.822 32.092 183.79 31.876 182.566 31.66C181.054 31.42 179.722 31.108 178.57 30.724C177.442 30.316 176.494 29.824 175.726 29.248C174.958 28.672 174.382 27.976 173.998 27.16C173.614 26.32 173.422 25.324 173.422 24.172C173.422 22.588 173.818 21.22 174.61 20.068C175.426 18.916 176.578 18.028 178.066 17.404C179.554 16.756 181.33 16.432 183.394 16.432C185.434 16.432 187.174 16.756 188.614 17.404C190.078 18.052 191.206 18.964 191.998 20.14C192.79 21.292 193.198 22.636 193.222 24.172H188.398C188.374 23.236 188.134 22.468 187.678 21.868C187.222 21.244 186.61 20.788 185.842 20.5C185.074 20.212 184.198 20.068 183.214 20.068C182.206 20.068 181.342 20.212 180.622 20.5C179.902 20.764 179.35 21.16 178.966 21.688C178.582 22.192 178.39 22.816 178.39 23.56C178.39 24.376 178.582 25.024 178.966 25.504C179.374 25.96 180.058 26.332 181.018 26.62C182.002 26.908 183.346 27.196 185.05 27.484C186.202 27.676 187.306 27.916 188.362 28.204C189.418 28.492 190.378 28.924 191.242 29.5C192.106 30.052 192.778 30.82 193.258 31.804C193.762 32.764 194.014 34.012 194.014 35.548C194.014 37.084 193.618 38.44 192.826 39.616C192.034 40.792 190.858 41.704 189.298 42.352C187.738 43 185.806 43.324 183.502 43.324ZM210.316 43.324C208.348 43.324 206.56 43.024 204.952 42.424C203.368 41.8 202 40.912 200.848 39.76C199.696 38.608 198.808 37.204 198.184 35.548C197.584 33.868 197.284 31.972 197.284 29.86C197.284 27.748 197.584 25.864 198.184 24.208C198.808 22.552 199.696 21.148 200.848 19.996C202 18.844 203.368 17.968 204.952 17.368C206.56 16.744 208.348 16.432 210.316 16.432C212.284 16.432 214.072 16.744 215.68 17.368C217.288 17.968 218.668 18.856 219.82 20.032C220.972 21.184 221.848 22.588 222.448 24.244C223.072 25.876 223.384 27.748 223.384 29.86C223.384 31.972 223.072 33.868 222.448 35.548C221.848 37.204 220.96 38.608 219.784 39.76C218.632 40.912 217.252 41.8 215.644 42.424C214.06 43.024 212.284 43.324 210.316 43.324ZM210.316 39.22C211.996 39.22 213.448 38.86 214.672 38.14C215.896 37.42 216.832 36.364 217.48 34.972C218.152 33.58 218.488 31.876 218.488 29.86C218.488 28.348 218.296 27.016 217.912 25.864C217.528 24.712 216.976 23.74 216.256 22.948C215.56 22.156 214.708 21.556 213.7 21.148C212.692 20.74 211.564 20.536 210.316 20.536C208.66 20.536 207.22 20.896 205.996 21.616C204.796 22.312 203.86 23.356 203.188 24.748C202.516 26.14 202.18 27.844 202.18 29.86C202.18 31.372 202.372 32.716 202.756 33.892C203.14 35.068 203.68 36.052 204.376 36.844C205.096 37.636 205.948 38.236 206.932 38.644C207.94 39.028 209.068 39.22 210.316 39.22ZM227.477 43V16.756H233.381L245.585 36.376H245.801L245.585 27.952V16.756H250.193V43H244.577L232.337 23.56H232.121L232.337 31.408V43H227.477Z" fill="white"/>
</svg>
