<?xml version="1.0" encoding="UTF-8"?>
<svg xmlns="http://www.w3.org/2000/svg" viewBox="0 0 475 140" fill="#FFFFFF"><g><path d="M41.76,82.76l-9.52-1.9c-7.09-1.38-10.69-4.54-10.69-9.39c0-5.12,5.34-8.99,12.42-8.99c6.73,0,11.87,3.5,12.37,8.25         l18.81-7.33C60.31,51.74,48.3,43.91,33.97,43.91c-8.03,0-16.04,2.58-21.97,7.09C7.28,54.58,1.65,61.05,1.65,71.46         c0,13.67,9.62,23.91,26.39,28.1c2.64,0.6666,6.12,1.5,9.58,2.11c7.48,1.31,10.67,3.94,10.67,8.81c0,4.95-4.13,9.94-13.37,9.94         c-7.75,0-14.14-4.87-16.4-11.99L0,115.66C5.09,130.16,18.12,139,34.92,139c18.34,0,33.27-12.79,33.27-28.51         C68.19,96.32,58.81,86.47,41.76,82.76z" /></g> <g><rect x="82.03" y="44.44" width="21.15" height="92.23" /> <path d="M92.61,2.16c-6.33,0-11.48,5.15-11.48,11.48v0.12c0,6.33,5.15,11.48,11.48,11.48c6.33,0,11.48-5.15,11.48-11.48v-0.12         C104.09,7.31,98.94,2.16,92.61,2.16z" /></g> <g><path d="M193.28,52.06c-7.7-5.13-17.05-8.1-27.24-8.1c-27,0-48.15,20.87-48.15,47.51c0,26.64,21.15,47.51,48.15,47.51         c10.19,0,19.54-2.97,27.24-8.1h0.04l4.11,5.8h17V0h-21.15V52.06z M166.04,118.55c-15.4,0-27-11.64-27-27.08         c0-15.44,11.61-27.08,27-27.08s27.01,11.64,27.01,27.08C193.05,106.9,181.44,118.55,166.04,118.55z" /></g> <g><polygon points="268.97,0 237.86,0 237.86,4.99 250.81,5.53 250.81,130.79 237.86,131.33 237.86,136.67 283.56,136.67         283.56,131.33 268.97,130.79" /></g> <g><path d="M369.56,101.59c-5.73,23.52-22.87,26.8-29.89,26.8c-10.09,0-18.66-4.48-24.78-12.96c-5.85-8.1-8.7-21.61-8.7-34.22h65.46         c-2.01-12.55-8.01-21.96-16.7-28.71c-7.02-5.45-15.69-8.58-23.78-8.58c-12.16,0-23.42,4.7-31.71,13.25         c-8.61,8.87-13.35,20.26-13.35,34.12c0,14.27,4.59,26.39,13.29,35.03c8.26,8.22,19.93,12.74,32.85,12.74         c21.44,0,36.2-12.81,41.02-36.31L369.56,101.59z M350.18,75.95h-43.51c3.09-16.99,13.04-27.54,24.85-27.54         C345.62,48.41,350.18,63.82,350.18,75.95z" /></g> <g><path d="M470.57,101.59c-5.73,23.52-22.87,26.8-29.89,26.8c-10.09,0-18.66-4.48-24.78-12.96c-5.85-8.1-8.7-21.61-8.7-34.22h65.46         c-2.01-12.55-8.01-21.96-16.7-28.71c-7.02-5.45-15.69-8.58-23.78-8.58c-12.16,0-23.42,4.7-31.71,13.25         c-8.61,8.87-13.35,20.26-13.35,34.12c0,14.27,4.59,26.39,13.29,35.03c8.26,8.22,19.93,12.74,32.85,12.74         c21.44,0,36.2-12.81,41.02-36.31L470.57,101.59z M451.19,75.95h-43.51c3.09-16.99,13.04-27.54,24.85-27.54         C446.63,48.41,451.19,63.82,451.19,75.95z" /></g></svg>