<svg width="117" height="107" viewBox="0 0 117 107" fill="none" xmlns="http://www.w3.org/2000/svg">
<path d="M72.7 24.356C70.7 24.856 69.3 25.156 67.8 24.556C66.7 24.156 65.8 22.856 65 21.756L51.5 3.25596C50.7 2.15596 49.8 0.855965 48.7 0.455965C47.3 -0.144035 45.8 0.255965 43.8 0.655965L0 12.356V93.856L43.9 82.156C45.9 81.756 47.4 81.356 48.8 81.956C49.9 82.456 50.8 83.656 51.6 84.756L65.1 103.356C65.9 104.456 66.8 105.656 67.9 106.156C69.3 106.656 70.8 106.356 72.8 105.956L116.6 94.256V12.656L72.7 24.356Z" fill="white"/>
</svg>
