<svg width="31" height="34" viewBox="0 0 31 34" fill="none" xmlns="http://www.w3.org/2000/svg">
<path fill-rule="evenodd" clip-rule="evenodd" d="M8.866 15.745C8.866 11.227 11.499 7.314 15.312 5.458C14.5681 3.78219 13.2712 2.41275 11.6383 1.57891C10.0054 0.745064 8.1356 0.497419 6.34192 0.877428C4.54825 1.25744 2.93953 2.24203 1.78505 3.66642C0.63057 5.0908 0.000392611 6.86851 0 8.702C0 12.486 4.93 19.24 7.05 21.969C7.16264 22.1144 7.307 22.2322 7.47207 22.3134C7.63715 22.3945 7.81857 22.4369 8.00252 22.4373C8.18647 22.4377 8.36808 22.3961 8.53349 22.3156C8.6989 22.2351 8.84376 22.118 8.957 21.973C9.27 21.574 9.643 21.088 10.052 20.538C9.1 18.228 8.866 16.695 8.866 15.745Z" fill="black"/>
<path fill-rule="evenodd" clip-rule="evenodd" d="M9.84 15.745C9.84 20.691 16.286 29.52 19.058 33.088C19.2053 33.278 19.3939 33.4318 19.6096 33.5378C19.8254 33.6438 20.0624 33.6991 20.3028 33.6996C20.5431 33.7001 20.7804 33.6457 20.9966 33.5406C21.2127 33.4354 21.402 33.2824 21.55 33.093C24.325 29.548 30.76 20.786 30.76 15.745C30.76 9.968 26.077 5.285 20.3 5.285C14.524 5.285 9.84 9.968 9.84 15.745Z" fill="black"/>
</svg>
