<?xml version="1.0" encoding="UTF-8"?>
<svg xmlns="http://www.w3.org/2000/svg" width="24" height="24" viewBox="0 0 24 24" fill="none">
<g clip-path="url(#clip0_4_14)">
<path d="M11.8964 1.3C14.2964 1.3 16.6964 2.2 18.5964 3.7C20.4964 5.3 21.7964 7.5 22.2964 9.9C22.7964 12.3 22.3964 14.8 21.2964 17C20.0964 19.2 18.2964 20.9 15.9964 21.8C13.6964 22.7 11.1964 22.9 8.89644 22.2C6.49644 21.5 4.39644 20 3.09644 17.9C1.69644 15.8 1.09644 13.4 1.39644 10.9C1.59644 8.4 2.69644 6.1 4.39644 4.4C5.39644 3.4 6.49644 2.6 7.79644 2.1C9.09644 1.6 10.4964 1.3 11.8964 1.3ZM11.8964 0C9.49644 0 7.19644 0.7 5.29644 2C3.29644 3.3 1.79644 5.2 0.896443 7.4C-0.00355744 9.6 -0.203557 12 0.196443 14.3C0.696443 16.6 1.79644 18.8 3.39644 20.4C5.09644 22.1 7.19644 23.2 9.49644 23.7C11.7964 24.2 14.1964 23.9 16.3964 23C18.5964 22.1 20.3964 20.6 21.6964 18.6C22.9964 16.6 23.6964 14.3 23.6964 11.9C23.6964 10.3 23.3964 8.8 22.7964 7.3C22.1964 5.8 21.2964 4.5 20.1964 3.4C19.0964 2.3 17.7964 1.4 16.3964 0.8C14.9964 0.3 13.3964 0 11.8964 0ZM12.4964 8.8C12.4964 9.5 12.6964 10.1 13.1964 10.6C13.5964 11.1 14.2964 11.3 14.8964 11.4H18.1964V5.6H12.4964V8.8Z" fill="#000000" />
<path d="M11.1964 8.8V5.6H5.49644V16C5.49644 17.4 6.59644 18.2 7.89644 18.5L11.8964 19.6C11.8964 19.6 14.4964 18.9 15.7964 18.5C17.0964 18.1 18.1964 17.4 18.1964 16V12.7H14.6964C12.6964 12.7 11.1964 10.9 11.1964 8.8Z" fill="#000000" />
</g>
<defs>
<clipPath id="clip0_4_14">
<rect width="24" height="24" fill="#000000" />
</clipPath>
</defs>
</svg>