<svg width="75" height="24" viewBox="0 0 75 24" fill="none" xmlns="http://www.w3.org/2000/svg">
<g clip-path="url(#clip0_6_24)">
<path d="M11.3 8.8V5.6H5.6V16C5.6 17.4 6.7 18.2 8 18.5L12 19.6C12 19.6 14.6 18.9 15.9 18.5C17.2 18.1 18.3 17.4 18.3 16V12.7H14.8C12.8 12.7 11.3 10.9 11.3 8.8Z" fill="white"/>
<path d="M12 1.3C14.4 1.3 16.8 2.2 18.7 3.7C20.6 5.3 21.9 7.5 22.4 9.9C22.9 12.3 22.5 14.8 21.4 17C20.2 19.2 18.4 20.9 16.1 21.8C13.8 22.7 11.3 22.9 9 22.2C6.6 21.5 4.5 20 3.2 17.9C1.8 15.8 1.2 13.4 1.5 10.9C1.7 8.4 2.8 6.1 4.5 4.4C5.5 3.4 6.6 2.6 7.9 2.1C9.2 1.6 10.6 1.3 12 1.3ZM12 0C9.6 0 7.3 0.7 5.4 2C3.4 3.3 1.9 5.2 0.999996 7.4C0.0999963 9.6 -0.100004 12 0.299996 14.3C0.799996 16.6 1.9 18.8 3.5 20.4C5.2 22.1 7.3 23.2 9.6 23.7C11.9 24.2 14.3 23.9 16.5 23C18.7 22.1 20.5 20.6 21.8 18.6C23.1 16.6 23.8 14.3 23.8 11.9C23.8 10.3 23.5 8.8 22.9 7.3C22.3 5.8 21.4 4.5 20.3 3.4C19.2 2.3 17.9 1.4 16.5 0.8C15.1 0.3 13.5 0 12 0ZM12.6 8.8C12.6 9.5 12.8 10.1 13.3 10.6C13.7 11.1 14.4 11.3 15 11.4H18.3V5.6H12.6V8.8Z" fill="white"/>
<path d="M29.4 11.2V4.5H30.9V9.8H34.4V11.2H29.4ZM34.6 7.9C34.6 5.8 36.1 4.4 38.1 4.4C39.8 4.4 41.2 5.5 41.5 7.2H39.9C39.7 6.4 39 5.8 38.1 5.8C37 5.8 36.2 6.6 36.2 7.9C36.2 9.1 37 10 38.1 10C39 10 39.6 9.5 39.9 8.7H41.5C41.2 10.3 39.8 11.4 38.1 11.4C36.2 11.3 34.6 9.9 34.6 7.9ZM42.4 11.2V4.5H43.9V11.2H42.4ZM29.4 19.5V15.4H34.1V16.7H30.8V18.1H34.3V19.5H29.4ZM38.8 12.8H40.3V19.5H38.8V18.9C38.6 19.1 38.4 19.3 38.2 19.4C38 19.5 37.7 19.6 37.4 19.6C36.1 19.6 35.2 18.5 35.2 17.1C35.2 15.6 36.2 14.5 37.5 14.5C37.8 14.5 38 14.6 38.2 14.7C38.4 14.8 38.6 15 38.8 15.2V12.8ZM38.8 17.1C38.8 16.4 38.4 15.9 37.7 15.9C37.1 15.9 36.6 16.4 36.6 17.1C36.6 17.8 37 18.3 37.7 18.3C38.4 18.3 38.8 17.8 38.8 17.1ZM44.3 14.6H45.8V19.4H44.4V19C44.2 19.2 44 19.4 43.8 19.5C43.6 19.6 43.3 19.7 43 19.7C42 19.7 41.4 19 41.4 17.9V14.7H42.9V17.5C42.9 17.9 43.1 18.3 43.6 18.3C44.1 18.3 44.4 17.9 44.4 17.5L44.3 14.6ZM55.7 14.6H57.2V19.4H55.7V18.8C55.5 19 55.3 19.2 55.1 19.3C54.9 19.4 54.6 19.5 54.3 19.5C53 19.5 52.1 18.4 52.1 17C52.1 15.5 53.1 14.4 54.4 14.4C54.7 14.4 54.9 14.5 55.1 14.6C55.3 14.7 55.5 14.9 55.7 15.1V14.6ZM55.7 17.1C55.7 16.4 55.3 15.9 54.6 15.9C53.9 15.9 53.5 16.4 53.5 17.1C53.5 17.8 53.9 18.3 54.6 18.3C55.3 18.3 55.7 17.8 55.7 17.1ZM61.3 15.8V14.7H60.2V13.3H59.1V13.9C59.1 14.1 59 14.4 58.8 14.5C58.6 14.7 58.4 14.8 58.2 14.8H57.9V15.9H58.8V18.7C58.8 18.9 58.9 19.2 59 19.3C59.2 19.5 59.4 19.6 59.6 19.6H61.2V18.4H60.4C60.2 18.4 60.1 18.3 60.1 18.1V15.9H61.3V15.8ZM62.1 14.2V12.8H63.6V14.2H62.1ZM62.1 19.5V14.7H63.6V19.5H62.1ZM64.4 17.1C64.4 15.6 65.5 14.5 67 14.5C68.4 14.5 69.6 15.6 69.6 17.1C69.6 18.6 68.5 19.7 67 19.7C65.5 19.7 64.4 18.5 64.4 17.1ZM68.1 17.1C68.1 16.4 67.7 15.9 67 15.9C66.4 15.9 65.9 16.4 65.9 17.1C65.9 17.8 66.4 18.3 67 18.3C67.7 18.3 68.1 17.8 68.1 17.1ZM74.8 16.3V19.5H73.3V16.7C73.3 16.3 73.1 15.9 72.5 15.9C72 15.9 71.7 16.3 71.7 16.7V19.5H70.2V14.7H71.6V15.2C71.8 15 72 14.8 72.3 14.7C72.5 14.6 72.8 14.5 73.1 14.5C74.1 14.5 74.8 15.2 74.8 16.3ZM50 17.6C49.9 17.8 49.8 18 49.6 18.1C49.4 18.2 49.2 18.3 49 18.3C48.4 18.3 47.9 17.8 47.9 17.1C47.9 16.4 48.4 15.9 49 15.9C49.2 15.9 49.4 16 49.6 16.1C49.8 16.2 49.9 16.4 50 16.6H51.5C51.3 15.4 50.3 14.5 49 14.5C47.5 14.5 46.4 15.6 46.4 17.1C46.4 18.6 47.5 19.7 49 19.7C50.3 19.7 51.3 18.8 51.5 17.6H50ZM34.4 12.8H29.4V14.2H34.4V12.8Z" fill="white"/>
</g>
<defs>
<clipPath id="clip0_6_24">
<rect width="75" height="24" fill="white"/>
</clipPath>
</defs>
</svg>
