<?xml version="1.0" encoding="UTF-8" standalone="no"?><svg xmlns="http://www.w3.org/2000/svg" viewBox="0 0 75 24"><path d="M11.3 8.8V5.6H5.6V16c0 1.4 1.1 2.2 2.4 2.5l4 1.1s2.6-.7 3.9-1.1 2.4-1.1 2.4-2.5v-3.3h-3.5c-2 0-3.5-1.8-3.5-3.9z" fill="#eb2d37"/><path d="M12 1.3c2.4 0 4.8.9 6.7 2.4 1.9 1.6 3.2 3.8 3.7 6.2s.1 4.9-1 7.1c-1.2 2.2-3 3.9-5.3 4.8s-4.8 1.1-7.1.4c-2.4-.7-4.5-2.2-5.8-4.3-1.4-2.1-2-4.5-1.7-7 .2-2.5 1.3-4.8 3-6.5 1-1 2.1-1.8 3.4-2.3s2.7-.8 4.1-.8zM12 0C9.6 0 7.3.7 5.4 2 3.4 3.3 1.9 5.2 1 7.4S-.1 12 .3 14.3c.5 2.3 1.6 4.5 3.2 6.1 1.7 1.7 3.8 2.8 6.1 3.3s4.7.2 6.9-.7c2.2-.9 4-2.4 5.3-4.4 1.3-2 2-4.3 2-6.7 0-1.6-.3-3.1-.9-4.6s-1.5-2.8-2.6-3.9-2.4-2-3.8-2.6C15.1.3 13.5 0 12 0zm.6 8.8c0 .7.2 1.3.7 1.8.4.5 1.1.7 1.7.8h3.3V5.6h-5.7v3.2z" fill="#055e7b"/><path d="M29.4 11.2V4.5h1.5v5.3h3.5v1.4h-5zm5.2-3.3c0-2.1 1.5-3.5 3.5-3.5 1.7 0 3.1 1.1 3.4 2.8h-1.6c-.2-.8-.9-1.4-1.8-1.4-1.1 0-1.9.8-1.9 2.1 0 1.2.8 2.1 1.9 2.1.9 0 1.5-.5 1.8-1.3h1.6c-.3 1.6-1.7 2.7-3.4 2.7-1.9-.1-3.5-1.5-3.5-3.5zm7.8 3.3V4.5h1.5v6.7h-1.5zm-13 8.3v-4.1h4.7v1.3h-3.3v1.4h3.5v1.4h-4.9zm9.4-6.7h1.5v6.7h-1.5v-.6c-.2.2-.4.4-.6.5-.2.1-.5.2-.8.2-1.3 0-2.2-1.1-2.2-2.5 0-1.5 1-2.6 2.3-2.6.3 0 .5.1.7.2.2.1.4.3.6.5v-2.4zm0 4.3c0-.7-.4-1.2-1.1-1.2-.6 0-1.1.5-1.1 1.2s.4 1.2 1.1 1.2c.7 0 1.1-.5 1.1-1.2zm5.5-2.5h1.5v4.8h-1.4V19c-.2.2-.4.4-.6.5-.2.1-.5.2-.8.2-1 0-1.6-.7-1.6-1.8v-3.2h1.5v2.8c0 .4.2.8.7.8s.8-.4.8-.8l-.1-2.9zm11.4 0h1.5v4.8h-1.5v-.6c-.2.2-.4.4-.6.5-.2.1-.5.2-.8.2-1.3 0-2.2-1.1-2.2-2.5 0-1.5 1-2.6 2.3-2.6.3 0 .5.1.7.2.2.1.4.3.6.5v-.5zm0 2.5c0-.7-.4-1.2-1.1-1.2-.7 0-1.1.5-1.1 1.2s.4 1.2 1.1 1.2c.7 0 1.1-.5 1.1-1.2zm5.6-1.3v-1.1h-1.1v-1.4h-1.1v.6c0 .2-.1.5-.3.6-.2.2-.4.3-.6.3h-.3v1.1h.9v2.8c0 .2.1.5.2.6.2.2.4.3.6.3h1.6v-1.2h-.8c-.2 0-.3-.1-.3-.3v-2.2h1.2v-.1zm.8-1.6v-1.4h1.5v1.4h-1.5zm0 5.3v-4.8h1.5v4.8h-1.5zm2.3-2.4c0-1.5 1.1-2.6 2.6-2.6 1.4 0 2.6 1.1 2.6 2.6s-1.1 2.6-2.6 2.6-2.6-1.2-2.6-2.6zm3.7 0c0-.7-.4-1.2-1.1-1.2-.6 0-1.1.5-1.1 1.2s.5 1.2 1.1 1.2c.7 0 1.1-.5 1.1-1.2zm6.7-.8v3.2h-1.5v-2.8c0-.4-.2-.8-.8-.8-.5 0-.8.4-.8.8v2.8h-1.5v-4.8h1.4v.5c.2-.2.4-.4.7-.5.2-.1.5-.2.8-.2 1 0 1.7.7 1.7 1.8zM50 17.6c-.1.2-.2.4-.4.5s-.4.2-.6.2c-.6 0-1.1-.5-1.1-1.2s.5-1.2 1.1-1.2c.2 0 .4.1.6.2.2.1.3.3.4.5h1.5c-.2-1.2-1.2-2.1-2.5-2.1-1.5 0-2.6 1.1-2.6 2.6s1.1 2.6 2.6 2.6c1.3 0 2.3-.9 2.5-2.1H50zm-15.6-4.8h-5v1.4h5v-1.4z" fill="#07181e"/></svg>
