<?xml version="1.0" encoding="UTF-8"?>
<svg xmlns="http://www.w3.org/2000/svg" data-bbox="0 0 131.545 128.225" viewBox="0 0 131.545 128.225" data-type="color">
    <g>
        <g>
            <g>
                <path fill="#000000" d="M60.994 128.225a58.26 58.26 0 0 1-8.757-.891c.775-.155 1.356-.273 1.549-.814a1.531 1.531 0 0 0-.271-1.593 30.932 30.932 0 0 0 7.479 3.298z" data-color="1" />
            </g>
            <g>
                <path fill="#000000" d="M48.283 126.486c2.789 1.082 5.268-1.209 1.393-3.729 1.008 1.475.698 3.529-1.393 3.729z" data-color="1" />
            </g>
            <g>
                <path fill="#000000" d="M42.778 124.498c3.6 2.562 7.48-.613 3.375-4.729.77 2.442-.628 5.115-3.375 4.729z" data-color="1" />
            </g>
            <g>
                <path fill="#000000" d="M36.299 121.318c4.733 4.777 10.856.12 5.779-6.36.892 4.155-2.598 7.41-5.779 6.36z" data-color="1" />
            </g>
            <g>
                <path fill="#000000" d="M26.99 115.463c4.812 7.61 16.446 3.763 11.794-6.743-.467 5.392-5.623 10.046-11.794 6.743z" data-color="1" />
            </g>
            <g>
                <path fill="#000000" d="M16.295 106.046c6.747 11.242 23.185 10.2 19.269-6.867-1.631 7.095-8.03 13.614-19.269 6.867z" data-color="1" />
            </g>
            <g>
                <path fill="#000000" d="M5.434 88.323c3.88 21.527 32.258 17.723 31.093.233-6.624 9.695-20.001 13.335-31.093-.233z" data-color="1" />
            </g>
            <g>
                <path fill="#000000" d="M.323 59.205c-4.226 38.808 34.314 38.074 40.241 19.892C29.445 86.418 5.556 88.557.323 59.205z" data-color="1" />
            </g>
            <g>
                <path fill="#000000" d="M17.846 19.968C-16.469 49.98 19.512 96.814 51.887 68.2 31.106 80.026-2.512 54.244 17.846 19.968z" data-color="1" />
            </g>
            <g>
                <path fill="#000000" d="M58.322.272c-57 1.671-42.923 78.084 4.3 62.967-31.171-1.668-43.807-50.176-4.3-62.967z" data-color="1" />
            </g>
        </g>
        <g>
            <g>
                <path fill="#000000" d="M70.539 0a57.665 57.665 0 0 1 8.765.894c-.74.116-1.362.23-1.551.813a1.47 1.47 0 0 0 .316 1.552A34.3 34.3 0 0 0 70.539 0z" data-color="1" />
            </g>
            <g>
                <path fill="#000000" d="M83.261 1.743c-2.8-1.086-5.275 1.2-1.393 3.721-1.008-1.47-.706-3.521 1.393-3.721z" data-color="1" />
            </g>
            <g>
                <path fill="#000000" d="M88.765 3.722c-3.614-2.558-7.445.623-3.336 4.732-.814-2.445.58-5.117 3.336-4.732z" data-color="1" />
            </g>
            <g>
                <path fill="#000000" d="M95.272 6.902c-4.723-4.764-10.893-.115-5.817 6.318-.883-4.109 2.607-7.366 5.817-6.318z" data-color="1" />
            </g>
            <g>
                <path fill="#000000" d="M104.54 12.755c-4.8-7.628-16.429-3.759-11.776 6.748.498-5.388 5.61-10.04 11.776-6.748z" data-color="1" />
            </g>
            <g>
                <path fill="#000000" d="M115.241 22.181c-6.741-11.244-23.18-10.2-19.266 6.859 1.665-7.093 8.022-13.607 19.266-6.859z" data-color="1" />
            </g>
            <g>
                <path fill="#000000" d="M126.15 39.892c-3.927-21.512-32.3-17.71-31.138-.227 6.619-9.694 19.998-13.375 31.138.227z" data-color="1" />
            </g>
            <g>
                <path fill="#000000" d="M131.216 69.012c4.271-38.807-34.306-38.111-40.205-19.888 11.089-7.325 35.017-9.459 40.205 19.888z" data-color="1" />
            </g>
            <g>
                <path fill="#000000" d="M113.693 108.262c34.313-30.058-1.626-76.856-34.036-48.248 20.822-11.82 54.385 13.96 34.036 48.248z" data-color="1" />
            </g>
            <g>
                <path fill="#000000" d="M73.258 127.956c56.949-1.672 42.879-78.093-4.34-62.971 31.167 1.624 43.845 50.173 4.34 62.971z" data-color="1" />
            </g>
        </g>
    </g>
</svg>